<?xml version="1.0" encoding="UTF-8"?>
<!DOCTYPE svg PUBLIC "-//W3C//DTD SVG 1.1//EN" "http://www.w3.org/Graphics/SVG/1.1/DTD/svg11.dtd">
<svg xmlns="http://www.w3.org/2000/svg" version="1.1" width="700px" height="394px" style="shape-rendering:geometricPrecision; text-rendering:geometricPrecision; image-rendering:optimizeQuality; fill-rule:evenodd; clip-rule:evenodd" xmlns:xlink="http://www.w3.org/1999/xlink">
<g><path style="opacity:1" fill="#fefefe" d="M -0.5,-0.5 C 232.833,-0.5 466.167,-0.5 699.5,-0.5C 699.5,130.833 699.5,262.167 699.5,393.5C 466.167,393.5 232.833,393.5 -0.5,393.5C -0.5,262.167 -0.5,130.833 -0.5,-0.5 Z"/></g>
<g><path style="opacity:1" fill="#a6a4a5" d="M 409.5,305.5 C 410.498,282.339 410.831,259.006 410.5,235.5C 404.642,235.178 398.975,235.511 393.5,236.5C 393.813,239.247 393.48,241.914 392.5,244.5C 388.832,239.812 384.166,236.812 378.5,235.5C 377.036,234.84 375.369,234.507 373.5,234.5C 370.795,234.316 368.462,234.983 366.5,236.5C 352.726,242.808 346.059,253.642 346.5,269C 347.058,277.723 349.558,285.89 354,293.5C 356.629,295.888 359.462,297.888 362.5,299.5C 363.347,300.966 364.68,301.8 366.5,302C 371.833,302.667 377.167,302.667 382.5,302C 383.056,301.617 383.389,301.117 383.5,300.5C 386.269,299.232 388.603,297.399 390.5,295C 391.448,294.517 392.448,294.351 393.5,294.5C 393.867,298.967 393.367,303.3 392,307.5C 386.289,313.117 379.455,314.95 371.5,313C 369.677,311.342 368.01,309.509 366.5,307.5C 360.202,306.504 353.868,306.17 347.5,306.5C 348.466,312.922 351.799,317.755 357.5,321C 301.168,321.5 244.834,321.667 188.5,321.5C 188.5,238.167 188.5,154.833 188.5,71.5C 295.833,71.5 403.167,71.5 510.5,71.5C 510.5,154.833 510.5,238.167 510.5,321.5C 472.832,321.667 435.165,321.5 397.5,321C 403.59,317.415 407.59,312.248 409.5,305.5 Z"/></g>
<g><path style="opacity:1" fill="#eae9ea" d="M 347.5,228.5 C 347.5,224.167 347.5,219.833 347.5,215.5C 325.5,215.5 303.5,215.5 281.5,215.5C 281.5,219.833 281.5,224.167 281.5,228.5C 281.167,228.5 280.833,228.5 280.5,228.5C 280.5,223.833 280.5,219.167 280.5,214.5C 303.167,214.5 325.833,214.5 348.5,214.5C 348.819,219.363 348.486,224.03 347.5,228.5 Z"/></g>
<g><path style="opacity:1" fill="#fdfdfd" d="M 261.5,217.5 C 277.106,223.143 281.273,233.477 274,248.5C 272.382,250.234 270.882,252.067 269.5,254C 279.571,263.589 281.738,274.756 276,287.5C 270.511,294.494 263.344,298.161 254.5,298.5C 239.167,298.5 223.833,298.5 208.5,298.5C 208.5,270.833 208.5,243.167 208.5,215.5C 223.504,215.333 238.504,215.5 253.5,216C 256.168,216.567 258.834,217.067 261.5,217.5 Z"/></g>
<g><path style="opacity:1" fill="#fdfdfd" d="M 347.5,228.5 C 332.966,246.909 317.966,264.909 302.5,282.5C 301.596,283.209 301.263,284.209 301.5,285.5C 316.5,285.5 331.5,285.5 346.5,285.5C 346.5,289.833 346.5,294.167 346.5,298.5C 324.833,298.5 303.167,298.5 281.5,298.5C 281.5,293.5 281.5,288.5 281.5,283.5C 283.587,282.415 284.92,280.749 285.5,278.5C 298.153,262.517 311.153,246.85 324.5,231.5C 325.404,230.791 325.737,229.791 325.5,228.5C 310.833,228.5 296.167,228.5 281.5,228.5C 281.5,224.167 281.5,219.833 281.5,215.5C 303.5,215.5 325.5,215.5 347.5,215.5C 347.5,219.833 347.5,224.167 347.5,228.5 Z"/></g>
<g><path style="opacity:1" fill="#fcfcfc" d="M 496.5,297.5 C 490.355,298.49 484.022,298.823 477.5,298.5C 475.844,293.182 474.178,287.849 472.5,282.5C 460.833,282.5 449.167,282.5 437.5,282.5C 435.678,287.974 433.678,293.308 431.5,298.5C 425.833,298.5 420.167,298.5 414.5,298.5C 414.5,297.167 414.5,295.833 414.5,294.5C 423.851,267.941 433.685,241.608 444,215.5C 451.413,214.519 458.913,214.186 466.5,214.5C 476.881,241.972 486.881,269.639 496.5,297.5 Z"/></g>
<g><path style="opacity:1" fill="#cccccc" d="M 280.5,228.5 C 280.833,228.5 281.167,228.5 281.5,228.5C 296.167,228.5 310.833,228.5 325.5,228.5C 325.737,229.791 325.404,230.791 324.5,231.5C 310.028,229.839 295.362,228.839 280.5,228.5 Z"/></g>
<g><path style="opacity:1" fill="#a5a4a4" d="M 251.5,229.5 C 259.021,231.51 261.188,236.177 258,243.5C 256.853,245.819 255.019,247.152 252.5,247.5C 243.833,247.5 235.167,247.5 226.5,247.5C 226.5,241.5 226.5,235.5 226.5,229.5C 234.833,229.5 243.167,229.5 251.5,229.5 Z"/></g>
<g><path style="opacity:1" fill="#cccbcc" d="M 251.5,229.5 C 243.167,229.5 234.833,229.5 226.5,229.5C 226.5,235.5 226.5,241.5 226.5,247.5C 235.167,247.5 243.833,247.5 252.5,247.5C 243.682,248.493 234.682,248.827 225.5,248.5C 225.5,241.833 225.5,235.167 225.5,228.5C 234.349,228.174 243.016,228.507 251.5,229.5 Z"/></g>
<g><path style="opacity:1" fill="#cccacb" d="M 378.5,235.5 C 374.466,235.505 370.466,235.838 366.5,236.5C 368.462,234.983 370.795,234.316 373.5,234.5C 375.369,234.507 377.036,234.84 378.5,235.5 Z"/></g>
<g><path style="opacity:1" fill="#ededed" d="M 261.5,217.5 C 258.834,217.067 256.168,216.567 253.5,216C 238.504,215.5 223.504,215.333 208.5,215.5C 208.5,243.167 208.5,270.833 208.5,298.5C 223.833,298.5 239.167,298.5 254.5,298.5C 239.009,299.496 223.342,299.83 207.5,299.5C 207.5,271.167 207.5,242.833 207.5,214.5C 225.209,214.086 242.875,214.586 260.5,216C 261.056,216.383 261.389,216.883 261.5,217.5 Z"/></g>
<g><path style="opacity:1" fill="#a7a6a6" d="M 454.5,236.5 C 455.75,236.577 456.583,237.244 457,238.5C 460.47,247.744 463.637,257.077 466.5,266.5C 459.197,267.497 451.863,267.831 444.5,267.5C 447.413,257.094 450.746,246.76 454.5,236.5 Z"/></g>
<g><path style="opacity:1" fill="#cdcccc" d="M 393.5,236.5 C 398.975,235.511 404.642,235.178 410.5,235.5C 410.831,259.006 410.498,282.339 409.5,305.5C 409.5,282.5 409.5,259.5 409.5,236.5C 404.167,236.5 398.833,236.5 393.5,236.5 Z"/></g>
<g><path style="opacity:1" fill="#a7a5a5" d="M 363.5,273.5 C 363.524,268.077 364.19,262.743 365.5,257.5C 369.98,250.731 376.313,248.564 384.5,251C 392.236,256.53 395.07,264.03 393,273.5C 390.872,285.655 383.705,290.489 371.5,288C 366.485,284.447 363.818,279.614 363.5,273.5 Z"/></g>
<g><path style="opacity:1" fill="#a5a4a4" d="M 254.5,263.5 C 257.195,263.933 259.362,265.266 261,267.5C 262.163,272.762 261.329,277.596 258.5,282C 256.913,282.862 255.246,283.529 253.5,284C 244.506,284.5 235.506,284.666 226.5,284.5C 226.5,277.5 226.5,270.5 226.5,263.5C 235.833,263.5 245.167,263.5 254.5,263.5 Z"/></g>
<g><path style="opacity:1" fill="#cfcece" d="M 254.5,263.5 C 245.167,263.5 235.833,263.5 226.5,263.5C 226.5,270.5 226.5,277.5 226.5,284.5C 225.508,277.352 225.175,270.019 225.5,262.5C 235.348,262.173 245.014,262.506 254.5,263.5 Z"/></g>
<g><path style="opacity:1" fill="#b8b8b7" d="M 365.5,257.5 C 364.19,262.743 363.524,268.077 363.5,273.5C 362.359,270.36 362.192,267.027 363,263.5C 363.24,261.148 364.073,259.148 365.5,257.5 Z"/></g>
<g><path style="opacity:1" fill="#d8d8d8" d="M 285.5,278.5 C 284.92,280.749 283.587,282.415 281.5,283.5C 282.08,281.251 283.413,279.585 285.5,278.5 Z"/></g>
<g><path style="opacity:1" fill="#dfddde" d="M 302.5,282.5 C 317.129,284.484 332.129,285.15 347.5,284.5C 347.5,289.5 347.5,294.5 347.5,299.5C 325.167,299.5 302.833,299.5 280.5,299.5C 280.179,293.974 280.512,288.64 281.5,283.5C 281.5,288.5 281.5,293.5 281.5,298.5C 303.167,298.5 324.833,298.5 346.5,298.5C 346.5,294.167 346.5,289.833 346.5,285.5C 331.5,285.5 316.5,285.5 301.5,285.5C 301.263,284.209 301.596,283.209 302.5,282.5 Z"/></g>
<g><path style="opacity:1" fill="#dfdede" d="M 414.5,294.5 C 414.5,295.833 414.5,297.167 414.5,298.5C 420.167,298.5 425.833,298.5 431.5,298.5C 425.69,299.49 419.69,299.823 413.5,299.5C 413.216,297.585 413.549,295.919 414.5,294.5 Z"/></g>
<g><path style="opacity:1" fill="#dddcdc" d="M 496.5,297.5 C 497.043,297.56 497.376,297.893 497.5,298.5C 490.678,299.818 484.011,299.818 477.5,298.5C 484.022,298.823 490.355,298.49 496.5,297.5 Z"/></g>
<g><path style="opacity:1" fill="#c1c0c0" d="M 362.5,299.5 C 369.39,301.722 376.39,302.055 383.5,300.5C 383.389,301.117 383.056,301.617 382.5,302C 377.167,302.667 371.833,302.667 366.5,302C 364.68,301.8 363.347,300.966 362.5,299.5 Z"/></g>
</svg>
