<?xml version="1.0" encoding="UTF-8"?>
<!DOCTYPE svg PUBLIC "-//W3C//DTD SVG 1.1//EN" "http://www.w3.org/Graphics/SVG/1.1/DTD/svg11.dtd">
<svg xmlns="http://www.w3.org/2000/svg" version="1.1" width="474px" height="263px" style="shape-rendering:geometricPrecision; text-rendering:geometricPrecision; image-rendering:optimizeQuality; fill-rule:evenodd; clip-rule:evenodd" xmlns:xlink="http://www.w3.org/1999/xlink">
<g><path style="opacity:1" fill="#fdfdfd" d="M -0.5,-0.5 C 157.5,-0.5 315.5,-0.5 473.5,-0.5C 473.5,87.1667 473.5,174.833 473.5,262.5C 315.5,262.5 157.5,262.5 -0.5,262.5C -0.5,174.833 -0.5,87.1667 -0.5,-0.5 Z"/></g>
<g><path style="opacity:1" fill="#b2b2b2" d="M 224.5,46.5 C 224.5,102.5 224.5,158.5 224.5,214.5C 200.328,214.831 176.328,214.498 152.5,213.5C 154.837,210.829 156.671,207.829 158,204.5C 158.5,188.837 158.667,173.17 158.5,157.5C 154.833,157.5 151.167,157.5 147.5,157.5C 147.799,159.604 147.466,161.604 146.5,163.5C 140.413,155.651 133.08,154.484 124.5,160C 118.206,165.378 115.539,172.211 116.5,180.5C 116.07,189.561 119.736,196.394 127.5,201C 134.685,202.718 141.018,201.218 146.5,196.5C 148.437,205.074 144.937,209.407 136,209.5C 133.077,209.955 130.91,208.955 129.5,206.5C 125.555,205.509 121.555,205.176 117.5,205.5C 117.441,209.548 119.108,212.715 122.5,215C 84.8348,215.5 47.1681,215.667 9.5,215.5C 9.5,159.167 9.5,102.833 9.5,46.5C 81.1667,46.5 152.833,46.5 224.5,46.5 Z"/></g>
<g><path style="opacity:1" fill="#c7c7c7" d="M 224.5,46.5 C 225.499,102.664 225.832,158.998 225.5,215.5C 200.498,215.667 175.498,215.5 150.5,215C 151.044,214.283 151.711,213.783 152.5,213.5C 176.328,214.498 200.328,214.831 224.5,214.5C 224.5,158.5 224.5,102.5 224.5,46.5 Z"/></g>
<g><path style="opacity:1" fill="#0f0f0f" d="M 247.5,79.5 C 252.179,79.3342 256.845,79.5008 261.5,80C 265.5,83 265.5,86 261.5,89C 265.994,91.467 266.66,94.8003 263.5,99C 258.264,100.339 252.93,100.839 247.5,100.5C 247.5,93.5 247.5,86.5 247.5,79.5 Z"/></g>
<g><path style="opacity:1" fill="#121212" d="M 440.5,79.5 C 441.833,79.5 443.167,79.5 444.5,79.5C 444.5,86.5 444.5,93.5 444.5,100.5C 443.167,100.5 441.833,100.5 440.5,100.5C 440.5,93.5 440.5,86.5 440.5,79.5 Z"/></g>
<g><path style="opacity:1" fill="#202020" d="M 409.5,97.5 C 409.5,98.5 409.5,99.5 409.5,100.5C 408.167,100.5 406.833,100.5 405.5,100.5C 404.542,100.047 403.708,99.3805 403,98.5C 402.95,94.1406 402.117,89.9739 400.5,86C 401.885,84.4029 402.551,82.5695 402.5,80.5C 404.167,80.5 405.833,80.5 407.5,80.5C 407.5,82.1667 407.5,83.8333 407.5,85.5C 408.5,85.5 409.5,85.5 410.5,85.5C 410.5,86.5 410.5,87.5 410.5,88.5C 409.5,88.5 408.5,88.5 407.5,88.5C 406.945,92.0122 407.612,95.0122 409.5,97.5 Z"/></g>
<g><path style="opacity:1" fill="#6f6f6f" d="M 258.5,83.5 C 256.5,83.5 254.5,83.5 252.5,83.5C 252.5,84.8333 252.5,86.1667 252.5,87.5C 254.5,87.5 256.5,87.5 258.5,87.5C 256.393,88.4682 254.059,88.8016 251.5,88.5C 251.5,86.5 251.5,84.5 251.5,82.5C 254.059,82.1984 256.393,82.5318 258.5,83.5 Z"/></g>
<g><path style="opacity:1" fill="#f5f5f5" d="M 258.5,83.5 C 259.833,84.8333 259.833,86.1667 258.5,87.5C 256.5,87.5 254.5,87.5 252.5,87.5C 252.5,86.1667 252.5,84.8333 252.5,83.5C 254.5,83.5 256.5,83.5 258.5,83.5 Z"/></g>
<g><path style="opacity:1" fill="#666666" d="M 317.5,100.5 C 317.5,93.5 317.5,86.5 317.5,79.5C 316.5,79.5 315.5,79.5 314.5,79.5C 314.808,81.924 314.474,84.2573 313.5,86.5C 312.893,86.3764 312.56,86.0431 312.5,85.5C 313.468,83.3926 313.802,81.0593 313.5,78.5C 315.167,78.5 316.833,78.5 318.5,78.5C 318.825,86.0191 318.492,93.3524 317.5,100.5 Z"/></g>
<g><path style="opacity:1" fill="#dbdbdb" d="M 365.5,85.5 C 361.167,85.5 356.833,85.5 352.5,85.5C 352.5,86.5 352.5,87.5 352.5,88.5C 354.857,88.3367 357.19,88.5034 359.5,89C 356.882,91.7395 354.382,94.5728 352,97.5C 351.517,98.448 351.351,99.448 351.5,100.5C 356.5,100.5 361.5,100.5 366.5,100.5C 364.022,101.164 361.355,101.497 358.5,101.5C 355.231,101.396 352.231,100.73 349.5,99.5C 351.55,93.4559 349.216,90.6226 342.5,91C 341.663,89.9887 341.33,88.8221 341.5,87.5C 344.09,87.3962 346.423,88.0629 348.5,89.5C 349.167,89.1667 349.833,88.8333 350.5,88.5C 349.807,87.4822 349.141,86.4822 348.5,85.5C 348.655,83.9652 349.822,82.6319 352,81.5C 352.374,82.4162 352.874,83.2496 353.5,84C 357.688,84.1762 361.688,84.6762 365.5,85.5 Z"/></g>
<g><path style="opacity:1" fill="#101010" d="M 267.5,85.5 C 268.833,85.5 270.167,85.5 271.5,85.5C 271.335,89.1817 271.501,92.8484 272,96.5C 273.667,97.8333 275.333,97.8333 277,96.5C 277.499,92.8484 277.665,89.1817 277.5,85.5C 278.833,85.5 280.167,85.5 281.5,85.5C 281.5,90.5 281.5,95.5 281.5,100.5C 279.856,100.714 278.356,100.38 277,99.5C 273.626,102.405 270.626,102.072 268,98.5C 267.501,94.1794 267.334,89.8461 267.5,85.5 Z"/></g>
<g><path style="opacity:1" fill="#131313" d="M 291.5,84.5 C 293.792,84.2436 295.959,84.5769 298,85.5C 299.388,90.3722 299.888,95.3722 299.5,100.5C 298.167,100.5 296.833,100.5 295.5,100.5C 295.665,96.8183 295.499,93.1516 295,89.5C 293.333,88.1667 291.667,88.1667 290,89.5C 289.501,93.1516 289.335,96.8183 289.5,100.5C 288.167,100.5 286.833,100.5 285.5,100.5C 285.5,95.5 285.5,90.5 285.5,85.5C 287.144,85.2865 288.644,85.6198 290,86.5C 290.717,85.9558 291.217,85.2891 291.5,84.5 Z"/></g>
<g><path style="opacity:1" fill="#1c1c1c" d="M 324.5,84.5 C 331.31,84.3083 334.977,87.6416 335.5,94.5C 331.774,94.1774 328.107,94.5108 324.5,95.5C 325.171,96.9458 326.338,97.6125 328,97.5C 330.086,96.5819 332.253,95.9153 334.5,95.5C 334.152,99.3451 331.985,101.345 328,101.5C 320.897,99.9238 318.564,95.5904 321,88.5C 322.376,87.2949 323.542,85.9616 324.5,84.5 Z"/></g>
<g><path style="opacity:1" fill="#090909" d="M 398.5,88.5 C 398.5,92.5 398.5,96.5 398.5,100.5C 397.5,100.5 396.5,100.5 395.5,100.5C 395.813,96.9581 395.479,93.6248 394.5,90.5C 393.172,88.2554 391.339,87.9221 389,89.5C 388.501,93.1516 388.335,96.8183 388.5,100.5C 387.167,100.5 385.833,100.5 384.5,100.5C 384.5,95.5 384.5,90.5 384.5,85.5C 388.75,85.9299 393.083,86.0966 397.5,86C 398.252,86.6708 398.586,87.5041 398.5,88.5 Z"/></g>
<g><path style="opacity:1" fill="#0c0c0c" d="M 419.5,84.5 C 420.5,84.5 421.5,84.5 422.5,84.5C 422.5,85.8333 422.5,87.1667 422.5,88.5C 420.278,88.178 418.444,88.8446 417,90.5C 416.502,93.8168 416.335,97.1501 416.5,100.5C 415.167,100.5 413.833,100.5 412.5,100.5C 412.5,95.5 412.5,90.5 412.5,85.5C 414.262,85.3573 415.929,85.6906 417.5,86.5C 418.522,86.1445 419.189,85.4778 419.5,84.5 Z"/></g>
<g><path style="opacity:1" fill="#141414" d="M 381.5,90.5 C 381.5,91.5 381.5,92.5 381.5,93.5C 377.833,93.5 374.167,93.5 370.5,93.5C 370.263,94.791 370.596,95.791 371.5,96.5C 374.794,96.9705 378.127,96.9705 381.5,96.5C 378.813,100.314 375.147,101.48 370.5,100C 366.972,97.4186 365.806,93.9186 367,89.5C 369.665,84.5656 373.498,83.3989 378.5,86C 380.141,87.129 381.141,88.629 381.5,90.5 Z"/></g>
<g><path style="opacity:1" fill="#181818" d="M 462.5,93.5 C 458.833,93.5 455.167,93.5 451.5,93.5C 451.263,94.791 451.596,95.791 452.5,96.5C 455.794,96.9705 459.127,96.9705 462.5,96.5C 458.781,102.314 454.281,102.981 449,98.5C 446.181,92.8784 447.348,88.3784 452.5,85C 459.073,84.0755 462.406,86.9088 462.5,93.5 Z"/></g>
<g><path style="opacity:1" fill="#161616" d="M 317.5,100.5 C 316.07,100.579 314.736,100.246 313.5,99.5C 308.85,102.734 305.35,101.734 303,96.5C 301.227,88.1213 304.393,84.4546 312.5,85.5C 312.56,86.0431 312.893,86.3764 313.5,86.5C 314.474,84.2573 314.808,81.924 314.5,79.5C 315.5,79.5 316.5,79.5 317.5,79.5C 317.5,86.5 317.5,93.5 317.5,100.5 Z"/></g>
<g><path style="opacity:1" fill="#ededed" d="M 308.5,87.5 C 310.39,87.2965 311.89,87.9632 313,89.5C 313.769,92.0991 313.602,94.5991 312.5,97C 310.251,97.8632 308.418,97.3632 307,95.5C 306.282,92.5929 306.782,89.9262 308.5,87.5 Z"/></g>
<g><path style="opacity:1" fill="#bfbfbf" d="M 326.5,87.5 C 328.912,87.244 330.579,88.244 331.5,90.5C 329.257,91.4742 326.924,91.8076 324.5,91.5C 324.527,89.8007 325.194,88.4674 326.5,87.5 Z"/></g>
<g><path style="opacity:1" fill="#cacaca" d="M 371.5,88.5 C 373.977,88.0508 375.977,88.7175 377.5,90.5C 375.167,91.8333 372.833,91.8333 370.5,90.5C 370.863,89.8165 371.196,89.1499 371.5,88.5 Z"/></g>
<g><path style="opacity:1" fill="#c6c6c6" d="M 452.5,88.5 C 454.977,88.0508 456.977,88.7175 458.5,90.5C 456.167,91.8333 453.833,91.8333 451.5,90.5C 451.863,89.8165 452.196,89.1499 452.5,88.5 Z"/></g>
<g><path style="opacity:1" fill="#f7f7f7" d="M 252.5,91.5 C 254.857,91.3367 257.19,91.5034 259.5,92C 261.043,94.0449 260.71,95.5449 258.5,96.5C 256.5,96.5 254.5,96.5 252.5,96.5C 252.5,94.8333 252.5,93.1667 252.5,91.5 Z"/></g>
<g><path style="opacity:1" fill="#161616" d="M 426.5,84.5 C 430.516,83.8999 434.016,84.8999 437,87.5C 437.499,91.8206 437.666,96.1539 437.5,100.5C 435.738,100.643 434.071,100.309 432.5,99.5C 426.368,103.179 423.202,101.513 423,94.5C 425.674,92.1295 428.841,90.9628 432.5,91C 433.851,88.875 433.185,87.7083 430.5,87.5C 428.833,88.1667 427.167,88.8333 425.5,89.5C 424.833,89.1667 424.167,88.8333 423.5,88.5C 424.524,87.1482 425.524,85.8149 426.5,84.5 Z"/></g>
<g><path style="opacity:1" fill="#181818" d="M 348.5,85.5 C 349.141,86.4822 349.807,87.4822 350.5,88.5C 349.833,88.8333 349.167,89.1667 348.5,89.5C 346.423,88.0629 344.09,87.3962 341.5,87.5C 341.33,88.8221 341.663,89.9887 342.5,91C 349.216,90.6226 351.55,93.4559 349.5,99.5C 345.069,102.4 340.903,102.067 337,98.5C 336.517,97.552 336.351,96.552 336.5,95.5C 339.642,96.2147 342.642,97.048 345.5,98C 346.833,97 346.833,96 345.5,95C 342.947,94.2389 340.447,93.4056 338,92.5C 336.165,86.9986 338.165,84.3319 344,84.5C 345.44,85.1476 346.94,85.4809 348.5,85.5 Z"/></g>
<g><path style="opacity:1" fill="#101010" d="M 365.5,85.5 C 365.657,86.8734 365.49,88.2068 365,89.5C 362.65,91.6829 360.483,94.0163 358.5,96.5C 361.086,97.48 363.753,97.8134 366.5,97.5C 366.5,98.5 366.5,99.5 366.5,100.5C 361.5,100.5 356.5,100.5 351.5,100.5C 351.351,99.448 351.517,98.448 352,97.5C 354.382,94.5728 356.882,91.7395 359.5,89C 357.19,88.5034 354.857,88.3367 352.5,88.5C 352.5,87.5 352.5,86.5 352.5,85.5C 356.833,85.5 361.167,85.5 365.5,85.5 Z"/></g>
<g><path style="opacity:1" fill="#7c7c7c" d="M 381.5,90.5 C 382.434,91.5676 382.768,92.901 382.5,94.5C 378.351,93.9197 374.684,94.5864 371.5,96.5C 370.596,95.791 370.263,94.791 370.5,93.5C 374.167,93.5 377.833,93.5 381.5,93.5C 381.5,92.5 381.5,91.5 381.5,90.5 Z"/></g>
<g><path style="opacity:1" fill="#717171" d="M 462.5,93.5 C 458.881,93.8813 455.548,94.8813 452.5,96.5C 451.596,95.791 451.263,94.791 451.5,93.5C 455.167,93.5 458.833,93.5 462.5,93.5 Z"/></g>
<g><path style="opacity:1" fill="#d0d0d0" d="M 428.5,93.5 C 430.167,93.5 431.833,93.5 433.5,93.5C 432.745,98.5955 430.411,99.5955 426.5,96.5C 427.193,95.4822 427.859,94.4822 428.5,93.5 Z"/></g>
<g><path style="opacity:1" fill="#969696" d="M 252.5,91.5 C 252.5,93.1667 252.5,94.8333 252.5,96.5C 254.5,96.5 256.5,96.5 258.5,96.5C 256.393,97.4682 254.059,97.8016 251.5,97.5C 251.205,95.2646 251.539,93.2646 252.5,91.5 Z"/></g>
<g><path style="opacity:1" fill="#656565" d="M 398.5,88.5 C 399.485,92.6344 399.818,96.9677 399.5,101.5C 397.833,101.5 396.167,101.5 394.5,101.5C 394.5,97.8333 394.5,94.1667 394.5,90.5C 395.479,93.6248 395.813,96.9581 395.5,100.5C 396.5,100.5 397.5,100.5 398.5,100.5C 398.5,96.5 398.5,92.5 398.5,88.5 Z"/></g>
<g><path style="opacity:1" fill="#868686" d="M 409.5,97.5 C 410.434,98.5676 410.768,99.901 410.5,101.5C 408.585,101.784 406.919,101.451 405.5,100.5C 406.833,100.5 408.167,100.5 409.5,100.5C 409.5,99.5 409.5,98.5 409.5,97.5 Z"/></g>
<g><path style="opacity:1" fill="#0a0a0a" d="M 258.5,112.5 C 259.833,112.5 261.167,112.5 262.5,112.5C 262.5,113.5 262.5,114.5 262.5,115.5C 261.167,115.5 259.833,115.5 258.5,115.5C 258.5,114.5 258.5,113.5 258.5,112.5 Z"/></g>
<g><path style="opacity:1" fill="#0a0a0a" d="M 264.5,112.5 C 265.833,112.5 267.167,112.5 268.5,112.5C 268.5,113.5 268.5,114.5 268.5,115.5C 267.167,115.5 265.833,115.5 264.5,115.5C 264.5,114.5 264.5,113.5 264.5,112.5 Z"/></g>
<g><path style="opacity:1" fill="#151515" d="M 252.5,116.5 C 251.957,116.56 251.624,116.893 251.5,117.5C 255.335,118.996 255.335,119.996 251.5,120.5C 251.5,124.833 251.5,129.167 251.5,133.5C 250.167,133.5 248.833,133.5 247.5,133.5C 247.5,129.5 247.5,125.5 247.5,121.5C 246.5,121.5 245.5,121.5 244.5,121.5C 244.5,120.5 244.5,119.5 244.5,118.5C 245.5,118.5 246.5,118.5 247.5,118.5C 247.497,113.185 250.164,111.185 255.5,112.5C 255.5,113.5 255.5,114.5 255.5,115.5C 254.209,115.263 253.209,115.596 252.5,116.5 Z"/></g>
<g><path style="opacity:1" fill="#0f0f0f" d="M 256.5,118.5 C 257.833,118.5 259.167,118.5 260.5,118.5C 260.335,122.182 260.501,125.848 261,129.5C 262.667,130.833 264.333,130.833 266,129.5C 266.499,125.848 266.665,122.182 266.5,118.5C 267.833,118.5 269.167,118.5 270.5,118.5C 270.5,123.5 270.5,128.5 270.5,133.5C 269.167,133.5 267.833,133.5 266.5,133.5C 265.922,132.453 265.256,132.62 264.5,134C 260.147,135.327 257.48,133.827 256.5,129.5C 256.5,125.833 256.5,122.167 256.5,118.5 Z"/></g>
<g><path style="opacity:1" fill="#070707" d="M 280.5,118.5 C 281.5,118.5 282.5,118.5 283.5,118.5C 283.5,119.5 283.5,120.5 283.5,121.5C 282.209,121.263 281.209,121.596 280.5,122.5C 279.5,122.833 278.833,123.5 278.5,124.5C 277.523,127.287 277.19,130.287 277.5,133.5C 276.5,133.5 275.5,133.5 274.5,133.5C 274.5,128.5 274.5,123.5 274.5,118.5C 276.703,118.935 278.703,118.935 280.5,118.5 Z"/></g>
<g><path style="opacity:1" fill="#8b8b8b" d="M 280.5,118.5 C 281.568,117.566 282.901,117.232 284.5,117.5C 284.5,119.167 284.5,120.833 284.5,122.5C 283.167,122.5 281.833,122.5 280.5,122.5C 281.209,121.596 282.209,121.263 283.5,121.5C 283.5,120.5 283.5,119.5 283.5,118.5C 282.5,118.5 281.5,118.5 280.5,118.5 Z"/></g>
<g><path style="opacity:1" fill="#8b8b8b" d="M 252.5,116.5 C 253.671,117.345 255.005,118.011 256.5,118.5C 256.5,122.167 256.5,125.833 256.5,129.5C 255.527,127.052 255.194,124.385 255.5,121.5C 254.5,121.5 253.5,121.5 252.5,121.5C 252.5,125.833 252.5,130.167 252.5,134.5C 250.585,134.784 248.919,134.451 247.5,133.5C 248.833,133.5 250.167,133.5 251.5,133.5C 251.5,129.167 251.5,124.833 251.5,120.5C 255.335,119.996 255.335,118.996 251.5,117.5C 251.624,116.893 251.957,116.56 252.5,116.5 Z"/></g>
<g><path style="opacity:1" fill="#9c9c9c" d="M 270.5,118.5 C 271.488,123.64 271.821,128.974 271.5,134.5C 269.585,134.784 267.919,134.451 266.5,133.5C 267.833,133.5 269.167,133.5 270.5,133.5C 270.5,128.5 270.5,123.5 270.5,118.5 Z"/></g>
<g><path style="opacity:1" fill="#585858" d="M 278.5,124.5 C 278.5,127.833 278.5,131.167 278.5,134.5C 276.901,134.768 275.568,134.434 274.5,133.5C 275.5,133.5 276.5,133.5 277.5,133.5C 277.19,130.287 277.523,127.287 278.5,124.5 Z"/></g>
<g><path style="opacity:1" fill="#dcdcdc" d="M 51.5,143.5 C 41.8333,143.5 32.1667,143.5 22.5,143.5C 22.5,162.167 22.5,180.833 22.5,199.5C 33.5,199.5 44.5,199.5 55.5,199.5C 44.3456,200.495 33.0123,200.828 21.5,200.5C 21.5,181.167 21.5,161.833 21.5,142.5C 31.6806,142.173 41.6806,142.506 51.5,143.5 Z"/></g>
<g><path style="opacity:1" fill="#fdfdfd" d="M 51.5,143.5 C 59.1306,143.396 64.6306,146.729 68,153.5C 69.5535,159.721 68.0535,165.055 63.5,169.5C 71.3026,176.522 72.4692,184.522 67,193.5C 63.4863,196.197 59.653,198.197 55.5,199.5C 44.5,199.5 33.5,199.5 22.5,199.5C 22.5,180.833 22.5,162.167 22.5,143.5C 32.1667,143.5 41.8333,143.5 51.5,143.5 Z"/></g>
<g><path style="opacity:1" fill="#fbfbfb" d="M 71.5,142.5 C 86.5,142.5 101.5,142.5 116.5,142.5C 116.665,146.182 116.499,149.848 116,153.5C 105.27,165.06 95.1036,177.06 85.5,189.5C 95.4778,190.499 105.478,190.832 115.5,190.5C 115.5,193.833 115.5,197.167 115.5,200.5C 100.588,200.824 85.755,200.491 71,199.5C 70.1628,195.705 70.4961,192.039 72,188.5C 81.6893,176.978 91.1893,165.312 100.5,153.5C 90.8563,152.502 81.1896,152.168 71.5,152.5C 71.5,149.167 71.5,145.833 71.5,142.5 Z"/></g>
<g><path style="opacity:1" fill="#fbfbfb" d="M 180.5,142.5 C 185.762,142.195 190.928,142.529 196,143.5C 202.94,162.157 209.774,180.823 216.5,199.5C 212.217,200.492 207.884,200.826 203.5,200.5C 202.311,196.62 200.977,192.787 199.5,189C 191.841,188.5 184.174,188.334 176.5,188.5C 175.311,192.38 173.977,196.213 172.5,200C 168.129,200.828 163.795,200.661 159.5,199.5C 167.269,180.739 174.269,161.739 180.5,142.5 Z"/></g>
<g><path style="opacity:1" fill="#585858" d="M 352.5,145.5 C 353.167,147.833 353.833,150.167 354.5,152.5C 354.44,153.043 354.107,153.376 353.5,153.5C 352.52,150.914 352.187,148.247 352.5,145.5 Z"/></g>
<g><path style="opacity:1" fill="#6b6b6b" d="M 383.5,145.5 C 383.5,146.5 383.5,147.5 383.5,148.5C 384.5,148.5 385.5,148.5 386.5,148.5C 386.5,147.5 386.5,146.5 386.5,145.5C 387.434,146.568 387.768,147.901 387.5,149.5C 385.833,149.5 384.167,149.5 382.5,149.5C 382.232,147.901 382.566,146.568 383.5,145.5 Z"/></g>
<g><path style="opacity:1" fill="#0f0f0f" d="M 383.5,145.5 C 384.5,145.5 385.5,145.5 386.5,145.5C 386.5,146.5 386.5,147.5 386.5,148.5C 385.5,148.5 384.5,148.5 383.5,148.5C 383.5,147.5 383.5,146.5 383.5,145.5 Z"/></g>
<g><path style="opacity:1" fill="#010101" d="M 404.5,146.5 C 404.5,153.167 404.5,159.833 404.5,166.5C 403.5,166.5 402.5,166.5 401.5,166.5C 401.5,159.833 401.5,153.167 401.5,146.5C 402.5,146.5 403.5,146.5 404.5,146.5 Z"/></g>
<g><path style="opacity:1" fill="#151515" d="M 411.5,145.5 C 411.5,146.5 411.5,147.5 411.5,148.5C 410.167,148.5 408.833,148.5 407.5,148.5C 407.5,147.5 407.5,146.5 407.5,145.5C 408.833,145.5 410.167,145.5 411.5,145.5 Z"/></g>
<g><path style="opacity:1" fill="#1f1f1f" d="M 396.5,163.5 C 396.804,164.15 397.137,164.817 397.5,165.5C 395.955,166.452 394.288,166.785 392.5,166.5C 391.189,162.12 389.856,157.62 388.5,153C 390.003,151.079 390.669,148.912 390.5,146.5C 392.167,146.5 393.833,146.5 395.5,146.5C 395.5,148.167 395.5,149.833 395.5,151.5C 396.5,151.5 397.5,151.5 398.5,151.5C 398.5,152.5 398.5,153.5 398.5,154.5C 397.5,154.5 396.5,154.5 395.5,154.5C 395.19,157.713 395.523,160.713 396.5,163.5 Z"/></g>
<g><path style="opacity:1" fill="#2e2e2e" d="M 404.5,146.5 C 403.5,146.5 402.5,146.5 401.5,146.5C 401.5,153.167 401.5,159.833 401.5,166.5C 402.5,166.5 403.5,166.5 404.5,166.5C 403.432,167.434 402.099,167.768 400.5,167.5C 400.5,160.167 400.5,152.833 400.5,145.5C 402.099,145.232 403.432,145.566 404.5,146.5 Z"/></g>
<g><path style="opacity:1" fill="#767676" d="M 411.5,145.5 C 412.434,146.568 412.768,147.901 412.5,149.5C 410.585,149.784 408.919,149.451 407.5,148.5C 408.833,148.5 410.167,148.5 411.5,148.5C 411.5,147.5 411.5,146.5 411.5,145.5 Z"/></g>
<g><path style="opacity:1" fill="#515151" d="M 342.5,166.5 C 343.5,166.5 344.5,166.5 345.5,166.5C 345.5,159.833 345.5,153.167 345.5,146.5C 344.5,146.5 343.5,146.5 342.5,146.5C 342.847,149.341 342.513,151.341 341.5,152.5C 341.5,150.167 341.5,147.833 341.5,145.5C 343.167,145.5 344.833,145.5 346.5,145.5C 346.5,152.833 346.5,160.167 346.5,167.5C 344.901,167.768 343.568,167.434 342.5,166.5 Z"/></g>
<g><path style="opacity:1" fill="#0b0b0b" d="M 349.5,145.5 C 350.5,145.5 351.5,145.5 352.5,145.5C 352.187,148.247 352.52,150.914 353.5,153.5C 354.107,153.376 354.44,153.043 354.5,152.5C 356.895,151.186 359.395,151.186 362,152.5C 363.379,157.036 363.879,161.703 363.5,166.5C 362.167,166.5 360.833,166.5 359.5,166.5C 359.815,162.629 359.482,158.962 358.5,155.5C 356.545,154.07 354.879,154.403 353.5,156.5C 352.521,159.625 352.187,162.958 352.5,166.5C 351.5,166.5 350.5,166.5 349.5,166.5C 349.5,159.5 349.5,152.5 349.5,145.5 Z"/></g>
<g><path style="opacity:1" fill="#1a1a1a" d="M 451.5,151.5 C 458.979,149.988 462.979,152.988 463.5,160.5C 459.833,160.5 456.167,160.5 452.5,160.5C 452.33,161.822 452.663,162.989 453.5,164C 456.5,163.667 459.5,163.333 462.5,163C 459.217,167.855 455.05,168.688 450,165.5C 446.265,160.268 446.765,155.602 451.5,151.5 Z"/></g>
<g><path style="opacity:1" fill="#0c0c0c" d="M 314.5,151.5 C 318.356,151.855 322.356,152.022 326.5,152C 327,152.5 327.5,153 328,153.5C 328.499,157.821 328.666,162.154 328.5,166.5C 327.167,166.5 325.833,166.5 324.5,166.5C 324.815,162.629 324.482,158.962 323.5,155.5C 321.545,154.07 319.879,154.403 318.5,156.5C 317.521,159.625 317.187,162.958 317.5,166.5C 316.5,166.5 315.5,166.5 314.5,166.5C 314.5,161.5 314.5,156.5 314.5,151.5 Z"/></g>
<g><path style="opacity:1" fill="#101010" d="M 342.5,166.5 C 342.565,166.062 342.399,165.728 342,165.5C 335.159,169.027 331.326,166.861 330.5,159C 331.113,151.782 334.78,149.615 341.5,152.5C 342.513,151.341 342.847,149.341 342.5,146.5C 343.5,146.5 344.5,146.5 345.5,146.5C 345.5,153.167 345.5,159.833 345.5,166.5C 344.5,166.5 343.5,166.5 342.5,166.5 Z"/></g>
<g><path style="opacity:1" fill="#0f0f0f" d="M 411.5,151.5 C 411.5,156.5 411.5,161.5 411.5,166.5C 410.167,166.5 408.833,166.5 407.5,166.5C 407.5,161.5 407.5,156.5 407.5,151.5C 408.833,151.5 410.167,151.5 411.5,151.5 Z"/></g>
<g><path style="opacity:1" fill="#101010" d="M 431.5,145.5 C 432.833,145.5 434.167,145.5 435.5,145.5C 435.336,148.187 435.503,150.854 436,153.5C 439,150.833 442,150.833 445,153.5C 445.499,158.155 445.666,162.821 445.5,167.5C 444.167,167.5 442.833,167.5 441.5,167.5C 441.666,163.486 441.499,159.486 441,155.5C 439.333,154.167 437.667,154.167 436,155.5C 435.501,159.152 435.335,162.818 435.5,166.5C 434.167,166.5 432.833,166.5 431.5,166.5C 431.5,159.5 431.5,152.5 431.5,145.5 Z"/></g>
<g><path style="opacity:1" fill="#b2b2b2" d="M 34.5,152.5 C 40.8682,152.17 47.2015,152.504 53.5,153.5C 56.3896,155.795 57.2229,158.795 56,162.5C 55.5,163.667 54.6667,164.5 53.5,165C 47.1754,165.5 40.8421,165.666 34.5,165.5C 34.5,161.167 34.5,156.833 34.5,152.5 Z"/></g>
<g><path style="opacity:1" fill="#101010" d="M 249.5,151.5 C 253.653,152.02 257.653,152.02 261.5,151.5C 261.666,157.509 261.499,163.509 261,169.5C 257.743,172.428 253.909,173.262 249.5,172C 247.128,170.529 247.128,169.363 249.5,168.5C 251.167,169.167 252.833,169.833 254.5,170.5C 257.154,169.531 257.82,167.864 256.5,165.5C 250.358,167.598 247.025,165.431 246.5,159C 246.548,156.078 247.548,153.578 249.5,151.5 Z"/></g>
<g><path style="opacity:1" fill="#ededed" d="M 251.5,154.5 C 257.067,153.753 258.9,156.087 257,161.5C 255,164.167 253,164.167 251,161.5C 250.444,159.115 250.61,156.782 251.5,154.5 Z"/></g>
<g><path style="opacity:1" fill="#e2e2e2" d="M 336.5,154.5 C 342.786,155.315 344.12,158.481 340.5,164C 337.783,165.033 335.949,164.2 335,161.5C 334.167,158.829 334.667,156.496 336.5,154.5 Z"/></g>
<g><path style="opacity:1" fill="#f3f3f3" d="M 453.5,154.5 C 455.665,154.116 457.332,154.783 458.5,156.5C 456.5,157.833 454.5,157.833 452.5,156.5C 452.863,155.817 453.196,155.15 453.5,154.5 Z"/></g>
<g><path style="opacity:1" fill="#151515" d="M 369.5,151.5 C 377.002,150.062 380.669,153.062 380.5,160.5C 376.774,160.177 373.107,160.511 369.5,161.5C 370.27,163.272 371.603,164.272 373.5,164.5C 375.59,162.894 377.924,162.394 380.5,163C 377.436,167.416 373.436,168.416 368.5,166C 364.268,160.809 364.601,155.975 369.5,151.5 Z"/></g>
<g><path style="opacity:1" fill="#999999" d="M 411.5,151.5 C 412.488,156.64 412.821,161.974 412.5,167.5C 410.585,167.784 408.919,167.451 407.5,166.5C 408.833,166.5 410.167,166.5 411.5,166.5C 411.5,161.5 411.5,156.5 411.5,151.5 Z"/></g>
<g><path style="opacity:1" fill="#e1e1e1" d="M 431.5,145.5 C 431.5,152.5 431.5,159.5 431.5,166.5C 432.833,166.5 434.167,166.5 435.5,166.5C 434.903,167.139 434.07,167.472 433,167.5C 431.107,166.992 429.607,165.992 428.5,164.5C 428.516,160.597 426.849,160.43 423.5,164C 420.173,164.513 418.507,163.013 418.5,159.5C 419.6,154.129 422.433,153.129 427,156.5C 428.03,156.164 428.53,155.497 428.5,154.5C 429.268,155.263 429.768,156.263 430,157.5C 430.176,153.312 430.676,149.312 431.5,145.5 Z"/></g>
<g><path style="opacity:1" fill="#e2e2e2" d="M 370.5,154.5 C 372.977,154.051 374.977,154.717 376.5,156.5C 374.167,157.833 371.833,157.833 369.5,156.5C 369.863,155.817 370.196,155.15 370.5,154.5 Z"/></g>
<g><path style="opacity:1" fill="#5b5b5b" d="M 349.5,145.5 C 349.5,152.5 349.5,159.5 349.5,166.5C 350.5,166.5 351.5,166.5 352.5,166.5C 352.187,162.958 352.521,159.625 353.5,156.5C 353.5,160.167 353.5,163.833 353.5,167.5C 351.833,167.5 350.167,167.5 348.5,167.5C 348.175,159.981 348.508,152.648 349.5,145.5 Z"/></g>
<g><path style="opacity:1" fill="#191919" d="M 282.5,151.5 C 285.518,151.335 288.518,151.502 291.5,152C 293.037,153.11 293.703,154.61 293.5,156.5C 291.226,156.285 289.059,155.618 287,154.5C 286.167,154.833 285.333,155.167 284.5,155.5C 287.63,157.091 290.797,158.757 294,160.5C 295.042,163.804 293.875,165.971 290.5,167C 287.833,167.667 285.167,167.667 282.5,167C 280.963,165.89 280.297,164.39 280.5,162.5C 283.436,163.406 286.436,164.072 289.5,164.5C 289.719,163.325 289.386,162.325 288.5,161.5C 285.833,160.877 283.333,159.877 281,158.5C 280.167,155.829 280.667,153.496 282.5,151.5 Z"/></g>
<g><path style="opacity:1" fill="#a2a2a2" d="M 358.5,155.5 C 359.482,158.962 359.815,162.629 359.5,166.5C 360.833,166.5 362.167,166.5 363.5,166.5C 362.081,167.451 360.415,167.784 358.5,167.5C 358.5,163.5 358.5,159.5 358.5,155.5 Z"/></g>
<g><path style="opacity:1" fill="#979797" d="M 323.5,155.5 C 324.482,158.962 324.815,162.629 324.5,166.5C 325.833,166.5 327.167,166.5 328.5,166.5C 327.081,167.451 325.415,167.784 323.5,167.5C 323.5,163.5 323.5,159.5 323.5,155.5 Z"/></g>
<g><path style="opacity:1" fill="#656565" d="M 383.5,151.5 C 383.5,156.5 383.5,161.5 383.5,166.5C 384.5,166.5 385.5,166.5 386.5,166.5C 386.5,161.5 386.5,156.5 386.5,151.5C 387.488,156.64 387.821,161.974 387.5,167.5C 385.833,167.5 384.167,167.5 382.5,167.5C 382.179,161.974 382.512,156.64 383.5,151.5 Z"/></g>
<g><path style="opacity:1" fill="#020202" d="M 383.5,151.5 C 384.5,151.5 385.5,151.5 386.5,151.5C 386.5,156.5 386.5,161.5 386.5,166.5C 385.5,166.5 384.5,166.5 383.5,166.5C 383.5,161.5 383.5,156.5 383.5,151.5 Z"/></g>
<g><path style="opacity:1" fill="#0d0d0d" d="M 296.5,151.5 C 297.833,151.5 299.167,151.5 300.5,151.5C 300.334,155.514 300.501,159.514 301,163.5C 302.938,164.86 304.604,164.527 306,162.5C 306.499,158.848 306.665,155.182 306.5,151.5C 307.833,151.5 309.167,151.5 310.5,151.5C 310.5,156.5 310.5,161.5 310.5,166.5C 306.525,167.12 302.358,167.12 298,166.5C 296.612,161.628 296.112,156.628 296.5,151.5 Z"/></g>
<g><path style="opacity:1" fill="#6a6a6a" d="M 314.5,151.5 C 314.5,156.5 314.5,161.5 314.5,166.5C 315.5,166.5 316.5,166.5 317.5,166.5C 317.187,162.958 317.521,159.625 318.5,156.5C 318.5,160.167 318.5,163.833 318.5,167.5C 316.833,167.5 315.167,167.5 313.5,167.5C 313.179,161.974 313.512,156.64 314.5,151.5 Z"/></g>
<g><path style="opacity:1" fill="#111111" d="M 428.5,154.5 C 428.53,155.497 428.03,156.164 427,156.5C 422.433,153.129 419.6,154.129 418.5,159.5C 418.507,163.013 420.173,164.513 423.5,164C 426.849,160.43 428.516,160.597 428.5,164.5C 418.641,169.824 414.141,166.824 415,155.5C 415.465,154.069 416.299,152.903 417.5,152C 420.5,151.333 423.5,151.333 426.5,152C 427.381,152.708 428.047,153.542 428.5,154.5 Z"/></g>
<g><path style="opacity:1" fill="#b2b2b2" d="M 187.5,157.5 C 189.117,159.121 190.284,161.121 191,163.5C 192.806,168.418 194.306,173.418 195.5,178.5C 190.833,178.5 186.167,178.5 181.5,178.5C 183.342,171.467 185.342,164.467 187.5,157.5 Z"/></g>
<g><path style="opacity:1" fill="#1b1b1b" d="M 266.5,151.5 C 273.979,149.988 277.979,152.988 278.5,160.5C 274.833,160.5 271.167,160.5 267.5,160.5C 267.33,161.822 267.663,162.989 268.5,164C 271.076,164.606 273.41,164.106 275.5,162.5C 277.872,163.363 277.872,164.529 275.5,166C 268.127,169.148 263.793,166.815 262.5,159C 262.927,155.977 264.261,153.477 266.5,151.5 Z"/></g>
<g><path style="opacity:1" fill="#eaeaea" d="M 268.5,154.5 C 270.665,154.116 272.332,154.783 273.5,156.5C 271.235,157.647 268.902,157.814 266.5,157C 267.381,156.292 268.047,155.458 268.5,154.5 Z"/></g>
<g><path style="opacity:1" fill="#636363" d="M 396.5,163.5 C 398.176,164.183 398.843,165.517 398.5,167.5C 396.265,167.795 394.265,167.461 392.5,166.5C 394.288,166.785 395.955,166.452 397.5,165.5C 397.137,164.817 396.804,164.15 396.5,163.5 Z"/></g>
<g><path style="opacity:1" fill="#b3b3b3" d="M 133.5,166.5 C 139.957,165.975 144.457,168.642 147,174.5C 149.63,186.853 144.796,192.686 132.5,192C 126.587,186.557 125.087,180.057 128,172.5C 129.36,169.977 131.193,167.977 133.5,166.5 Z"/></g>
<g><path style="opacity:1" fill="#b4b4b4" d="M 34.5,175.5 C 41.5079,175.334 48.5079,175.5 55.5,176C 58.3939,178.909 59.2272,182.409 58,186.5C 56.786,188.049 55.286,189.215 53.5,190C 47.1754,190.5 40.8421,190.666 34.5,190.5C 34.5,185.5 34.5,180.5 34.5,175.5 Z"/></g>
<g><path style="opacity:1" fill="#161616" d="M 252.5,178.5 C 254.5,178.5 256.5,178.5 258.5,178.5C 260.833,185.833 263.167,193.167 265.5,200.5C 263.833,200.5 262.167,200.5 260.5,200.5C 261.176,196.51 259.51,194.843 255.5,195.5C 251.918,194.917 249.918,196.417 249.5,200C 248.207,200.49 246.873,200.657 245.5,200.5C 247.833,193.167 250.167,185.833 252.5,178.5 Z"/></g>
<g><path style="opacity:1" fill="#0d0d0d" d="M 299.5,179.5 C 299.18,182.898 299.513,186.232 300.5,189.5C 302.167,188.5 303.5,187.167 304.5,185.5C 306.167,184.167 307.833,184.167 309.5,185.5C 307.5,186.833 305.833,188.5 304.5,190.5C 306.5,193.5 308.5,196.5 310.5,199.5C 308.833,200.833 307.167,200.833 305.5,199.5C 304.752,197.668 303.752,196.001 302.5,194.5C 301.743,193.227 301.077,193.227 300.5,194.5C 299.549,195.919 299.216,197.585 299.5,199.5C 298.5,199.5 297.5,199.5 296.5,199.5C 296.5,192.833 296.5,186.167 296.5,179.5C 297.5,179.5 298.5,179.5 299.5,179.5 Z"/></g>
<g><path style="opacity:1" fill="#000000" d="M 316.5,179.5 C 316.5,186.167 316.5,192.833 316.5,199.5C 315.5,199.5 314.5,199.5 313.5,199.5C 313.5,192.833 313.5,186.167 313.5,179.5C 314.5,179.5 315.5,179.5 316.5,179.5 Z"/></g>
<g><path style="opacity:1" fill="#222222" d="M 328.5,178.5 C 329.833,178.5 331.167,178.5 332.5,178.5C 332.5,179.833 332.5,181.167 332.5,182.5C 331.167,182.5 329.833,182.5 328.5,182.5C 328.5,181.167 328.5,179.833 328.5,178.5 Z"/></g>
<g><path style="opacity:1" fill="#0f0f0f" d="M 290.5,199.5 C 289.167,199.5 287.833,199.5 286.5,199.5C 286.817,195.298 286.483,191.298 285.5,187.5C 283.952,187.179 283.285,186.179 283.5,184.5C 284.5,184.5 285.5,184.5 286.5,184.5C 286.327,179.677 288.661,177.677 293.5,178.5C 293.5,179.5 293.5,180.5 293.5,181.5C 292.5,181.5 291.5,181.5 290.5,181.5C 290.5,182.5 290.5,183.5 290.5,184.5C 291.5,184.5 292.5,184.5 293.5,184.5C 293.5,185.5 293.5,186.5 293.5,187.5C 292.5,187.5 291.5,187.5 290.5,187.5C 290.5,191.5 290.5,195.5 290.5,199.5 Z"/></g>
<g><path style="opacity:1" fill="#727272" d="M 322.5,178.5 C 322.5,179.5 322.5,180.5 322.5,181.5C 323.5,181.5 324.5,181.5 325.5,181.5C 325.5,180.5 325.5,179.5 325.5,178.5C 326.434,179.568 326.768,180.901 326.5,182.5C 324.833,182.5 323.167,182.5 321.5,182.5C 321.232,180.901 321.566,179.568 322.5,178.5 Z"/></g>
<g><path style="opacity:1" fill="#101010" d="M 322.5,178.5 C 323.5,178.5 324.5,178.5 325.5,178.5C 325.5,179.5 325.5,180.5 325.5,181.5C 324.5,181.5 323.5,181.5 322.5,181.5C 322.5,180.5 322.5,179.5 322.5,178.5 Z"/></g>
<g><path style="opacity:1" fill="#353535" d="M 316.5,179.5 C 315.5,179.5 314.5,179.5 313.5,179.5C 313.5,186.167 313.5,192.833 313.5,199.5C 314.5,199.5 315.5,199.5 316.5,199.5C 315.432,200.434 314.099,200.768 312.5,200.5C 312.5,193.167 312.5,185.833 312.5,178.5C 314.099,178.232 315.432,178.566 316.5,179.5 Z"/></g>
<g><path style="opacity:1" fill="#121212" d="M 337.5,184.5 C 339.451,184.227 340.951,184.893 342,186.5C 343.444,184.845 345.278,184.178 347.5,184.5C 347.5,185.833 347.5,187.167 347.5,188.5C 345.738,188.357 344.071,188.691 342.5,189.5C 341.511,193.107 341.177,196.774 341.5,200.5C 340.167,200.5 338.833,200.5 337.5,200.5C 337.5,195.167 337.5,189.833 337.5,184.5 Z"/></g>
<g><path style="opacity:1" fill="#0d0d0d" d="M 367.5,184.5 C 369.143,184.48 370.476,185.147 371.5,186.5C 374.63,183.887 377.796,183.887 381,186.5C 381.499,191.155 381.666,195.821 381.5,200.5C 380.167,200.5 378.833,200.5 377.5,200.5C 377.666,196.486 377.499,192.486 377,188.5C 374.765,187.02 372.932,187.353 371.5,189.5C 370.521,192.625 370.187,195.958 370.5,199.5C 369.5,199.5 368.5,199.5 367.5,199.5C 367.5,194.5 367.5,189.5 367.5,184.5 Z"/></g>
<g><path style="opacity:1" fill="#171717" d="M 387.5,184.5 C 390.365,184.055 392.865,184.722 395,186.5C 396.049,184.893 397.549,184.227 399.5,184.5C 399.666,190.509 399.499,196.509 399,202.5C 393.885,208.002 389.051,207.835 384.5,202C 387.275,201.222 389.775,201.722 392,203.5C 394.978,202.73 395.811,201.063 394.5,198.5C 385.689,200.176 382.523,196.51 385,187.5C 386.045,186.627 386.878,185.627 387.5,184.5 Z"/></g>
<g><path style="opacity:1" fill="#0f0f0f" d="M 281.5,184.5 C 281.5,189.5 281.5,194.5 281.5,199.5C 280.07,199.579 278.736,199.246 277.5,198.5C 276.478,198.855 275.811,199.522 275.5,200.5C 273.208,200.756 271.041,200.423 269,199.5C 267.612,194.628 267.112,189.628 267.5,184.5C 268.833,184.5 270.167,184.5 271.5,184.5C 271.335,188.182 271.501,191.848 272,195.5C 273.667,198.167 275.333,198.167 277,195.5C 277.499,191.848 277.665,188.182 277.5,184.5C 278.833,184.5 280.167,184.5 281.5,184.5 Z"/></g>
<g><path style="opacity:1" fill="#141414" d="M 333.5,187.5 C 333.5,191.5 333.5,195.5 333.5,199.5C 332.5,199.5 331.5,199.5 330.5,199.5C 327.531,200.329 324.531,200.495 321.5,200C 318.833,197.333 318.833,194.667 321.5,192C 323.833,191.667 326.167,191.333 328.5,191C 329.337,189.989 329.67,188.822 329.5,187.5C 326.436,187.928 323.436,188.594 320.5,189.5C 320.297,187.61 320.963,186.11 322.5,185C 325.5,184.333 328.5,184.333 331.5,185C 332.381,185.708 333.047,186.542 333.5,187.5 Z"/></g>
<g><path style="opacity:1" fill="#dbdbdb" d="M 257.5,190.5 C 256.167,191.833 254.833,191.833 253.5,190.5C 254.833,182.5 256.167,182.5 257.5,190.5 Z"/></g>
<g><path style="opacity:1" fill="#f1f1f1" d="M 390.5,187.5 C 394.968,187.748 396.468,190.082 395,194.5C 391.509,197.446 389.342,196.612 388.5,192C 388.519,190.167 389.185,188.667 390.5,187.5 Z"/></g>
<g><path style="opacity:1" fill="#636363" d="M 367.5,184.5 C 367.5,189.5 367.5,194.5 367.5,199.5C 368.5,199.5 369.5,199.5 370.5,199.5C 370.187,195.958 370.521,192.625 371.5,189.5C 371.5,193.167 371.5,196.833 371.5,200.5C 369.833,200.5 368.167,200.5 366.5,200.5C 366.179,194.974 366.512,189.64 367.5,184.5 Z"/></g>
<g><path style="opacity:1" fill="#939393" d="M 281.5,184.5 C 282.488,189.64 282.821,194.974 282.5,200.5C 280.167,200.5 277.833,200.5 275.5,200.5C 275.811,199.522 276.478,198.855 277.5,198.5C 278.736,199.246 280.07,199.579 281.5,199.5C 281.5,194.5 281.5,189.5 281.5,184.5 Z"/></g>
<g><path style="opacity:1" fill="#8f8f8f" d="M 285.5,187.5 C 286.483,191.298 286.817,195.298 286.5,199.5C 287.833,199.5 289.167,199.5 290.5,199.5C 289.081,200.451 287.415,200.784 285.5,200.5C 285.5,196.167 285.5,191.833 285.5,187.5 Z"/></g>
<g><path style="opacity:1" fill="#0e0e0e" d="M 349.5,184.5 C 350.833,184.5 352.167,184.5 353.5,184.5C 353.334,188.514 353.501,192.514 354,196.5C 355.938,197.86 357.604,197.527 359,195.5C 359.499,191.848 359.665,188.182 359.5,184.5C 360.833,184.5 362.167,184.5 363.5,184.5C 363.5,189.833 363.5,195.167 363.5,200.5C 361.549,200.773 360.049,200.107 359,198.5C 355.925,201.059 352.925,201.059 350,198.5C 349.501,193.845 349.334,189.179 349.5,184.5 Z"/></g>
<g><path style="opacity:1" fill="#626262" d="M 253.5,190.5 C 254.833,191.833 256.167,191.833 257.5,190.5C 258.043,190.56 258.376,190.893 258.5,191.5C 256.5,192.833 254.5,192.833 252.5,191.5C 252.624,190.893 252.957,190.56 253.5,190.5 Z"/></g>
<g><path style="opacity:1" fill="#e3e3e3" d="M 324.5,193.5 C 326.167,193.5 327.833,193.5 329.5,193.5C 329.241,197.068 327.241,198.401 323.5,197.5C 323.433,196.041 323.766,194.708 324.5,193.5 Z"/></g>
<g><path style="opacity:1" fill="#353535" d="M 299.5,179.5 C 298.5,179.5 297.5,179.5 296.5,179.5C 296.5,186.167 296.5,192.833 296.5,199.5C 297.5,199.5 298.5,199.5 299.5,199.5C 299.216,197.585 299.549,195.919 300.5,194.5C 300.5,196.5 300.5,198.5 300.5,200.5C 298.833,200.5 297.167,200.5 295.5,200.5C 295.5,193.167 295.5,185.833 295.5,178.5C 297.099,178.232 298.432,178.566 299.5,179.5 Z"/></g>
<g><path style="opacity:1" fill="#676767" d="M 333.5,187.5 C 334.485,191.634 334.818,195.968 334.5,200.5C 332.901,200.768 331.568,200.434 330.5,199.5C 331.5,199.5 332.5,199.5 333.5,199.5C 333.5,195.5 333.5,191.5 333.5,187.5 Z"/></g>
</svg>
