<svg width="962" height="339" viewBox="0 0 962 339" fill="none" xmlns="http://www.w3.org/2000/svg">
<path d="M472.851 289.496H482.191L485.481 280.156H501.163L504.337 289.496H513.911L498.227 247.556H488.769L472.851 289.496ZM493.353 257.894H493.47L498.757 273.284H487.887L493.353 257.894ZM546.337 259.128H537.994V275.045C537.994 281.213 536.058 283.74 531.534 283.74C527.657 283.74 526.189 281.272 526.189 276.28V259.128H517.847V277.806C517.847 285.325 520.079 290.318 528.95 290.318C532.474 290.318 536.117 288.674 538.231 285.266H538.407V289.496H546.337V259.128ZM555.677 289.496H564.018V264.706H569.773V259.128H564.018V257.305C564.018 254.781 564.958 253.841 567.19 253.841C568.247 253.841 569.246 253.9 570.245 254.017V247.79C568.834 247.732 567.307 247.556 565.839 247.556C559.025 247.556 555.677 251.43 555.677 256.778V259.128H550.683V264.706H555.677V289.496ZM575.354 289.496H583.695V279.04L586.927 275.926L595.269 289.496H605.371L592.625 270.289L604.079 259.128H594.211L583.695 270.052V247.556H575.354V289.496ZM609.717 289.496H618.059V247.556H609.717V289.496ZM644.727 277.748C644.727 279.569 644.491 284.738 637.973 284.738C635.269 284.738 632.862 283.974 632.862 280.861C632.862 277.806 635.211 276.925 637.797 276.397C640.379 275.926 643.318 275.868 644.727 274.634V277.748ZM633.802 268.468C634.095 265.178 636.151 263.884 639.323 263.884C642.261 263.884 644.727 264.413 644.727 267.996C644.727 271.405 639.97 271.228 634.859 271.99C629.69 272.696 624.521 274.341 624.521 281.213C624.521 287.44 629.102 290.318 634.859 290.318C638.559 290.318 642.435 289.32 645.081 286.56C645.139 287.558 645.374 288.557 645.667 289.496H654.126C653.363 288.262 653.069 285.502 653.069 282.742V266.938C653.069 259.654 645.785 258.304 639.735 258.304C632.921 258.304 625.93 260.653 625.461 268.468H633.802ZM641.614 254.426H649.543V247.553H641.614V254.426ZM629.514 254.426H637.443V247.553H629.514V254.426ZM660.705 289.496H669.046V275.809C669.046 270.465 671.159 266.058 677.269 266.058C678.267 266.058 679.501 266.177 680.266 266.353V258.597C679.738 258.421 679.033 258.304 678.443 258.304C674.391 258.304 670.279 260.949 668.753 264.765H668.635V259.128H660.705V289.496ZM713.218 259.128H704.878V275.045C704.878 281.213 702.939 283.74 698.417 283.74C694.539 283.74 693.071 281.272 693.071 276.28V259.128H684.73V277.806C684.73 285.325 686.962 290.318 695.831 290.318C699.357 290.318 702.998 288.674 705.113 285.266H705.29V289.496H713.218V259.128ZM720.738 289.496H729.079V273.578C729.079 267.41 731.018 264.882 735.541 264.882C739.418 264.882 740.885 267.352 740.885 272.345V289.496H749.227V270.816C749.227 263.298 746.994 258.304 738.126 258.304C734.601 258.304 730.959 259.95 728.845 263.357H728.667V259.128H720.738V289.496ZM785.939 259.128H778.01V263.181H777.893C775.895 259.654 772.842 258.304 768.847 258.304C760.327 258.304 755.806 265.47 755.806 273.342C755.806 281.684 759.683 288.616 768.789 288.616C772.43 288.616 776.073 287.088 777.893 283.916H778.01V287.91C778.07 292.257 775.954 295.429 771.314 295.429C768.377 295.429 765.851 294.372 765.087 291.258H756.805C757.214 298.19 764.206 301.01 770.198 301.01C784.178 301.01 785.939 292.55 785.939 287.558V259.128ZM770.903 282.329C765.793 282.329 764.147 277.573 764.147 273.225C764.147 268.701 766.203 264.589 770.903 264.589C776.307 264.589 778.01 268.994 778.01 273.929C778.01 278.277 775.659 282.329 770.903 282.329" fill="#231F20"/>
<path d="M505.629 187.127H497.699V191.18H497.581C495.585 187.655 492.53 186.304 488.537 186.304C480.017 186.304 475.494 193.471 475.494 201.343C475.494 209.684 479.373 216.614 488.478 216.614C492.118 216.614 495.762 215.088 497.581 211.916H497.699V215.911C497.758 220.258 495.643 223.43 491.002 223.43C488.065 223.43 485.541 222.372 484.775 219.259H476.493C476.903 226.191 483.894 229.01 489.886 229.01C503.867 229.01 505.629 220.55 505.629 215.556V187.127ZM490.593 210.328C485.482 210.328 483.835 205.572 483.835 201.224C483.835 196.702 485.891 192.59 490.593 192.59C495.995 192.59 497.699 196.994 497.699 201.93C497.699 206.275 495.349 210.328 490.593 210.328ZM542.283 204.338C542.871 194.998 537.878 186.304 527.541 186.304C518.318 186.304 512.033 193.236 512.033 202.34C512.033 211.74 517.965 218.319 527.541 218.319C534.411 218.319 539.405 215.264 541.755 208.098H534.411C533.883 209.978 531.181 212.034 527.833 212.034C523.193 212.034 520.607 209.626 520.374 204.338H542.283ZM520.374 199.05C520.49 196.702 522.017 192.59 527.303 192.59C531.357 192.59 533.178 194.822 533.942 199.05H520.374ZM546.925 207.628C547.275 215.674 554.15 218.319 561.199 218.319C568.129 218.319 575.061 215.734 575.061 207.746C575.061 202.104 570.302 200.344 565.429 199.227C560.669 198.111 555.97 197.7 555.97 194.704C555.97 192.238 558.73 191.884 560.61 191.884C563.606 191.884 566.073 192.766 566.309 195.996H574.238C573.594 188.536 567.485 186.304 560.845 186.304C554.325 186.304 547.629 188.302 547.629 196.055C547.629 201.402 552.445 203.103 557.263 204.16C563.255 205.455 566.719 206.334 566.719 208.862C566.719 211.799 563.665 212.739 561.258 212.739C557.966 212.739 554.913 211.268 554.853 207.628H546.925ZM609.601 187.127H601.261V203.044C601.261 209.212 599.322 211.74 594.797 211.74C590.922 211.74 589.451 209.271 589.451 204.278V187.127H581.11V205.807C581.11 213.324 583.342 218.319 592.213 218.319C595.737 218.319 599.379 216.672 601.494 213.266H601.67V217.495H609.601V187.127ZM617.118 217.495H625.459V201.578C625.459 195.41 627.398 192.883 631.922 192.883C635.798 192.883 637.267 195.351 637.267 200.344V217.495H645.607V198.816C645.607 191.298 643.377 186.304 634.506 186.304C630.982 186.304 627.339 187.948 625.225 191.356H625.049V187.127H617.118V217.495ZM674.802 217.495H682.733V175.554H674.391V190.827H674.273C672.394 187.831 668.87 186.304 665.286 186.304C656.357 186.304 651.834 193.88 651.834 202.046C651.834 210.446 656.298 218.319 665.462 218.319C669.339 218.319 672.746 216.91 674.685 213.618H674.802V217.495ZM674.685 202.222C674.685 207.215 673.041 212.034 667.518 212.034C662.349 212.034 660.175 207.04 660.175 202.282C660.175 197.29 662.055 192.59 667.518 192.59C672.923 192.59 674.685 197.29 674.685 202.222ZM690.191 217.495H698.534V201.578C698.534 195.41 700.473 192.883 704.995 192.883C708.873 192.883 710.341 195.351 710.341 200.344V217.495H718.682V198.816C718.682 191.298 716.45 186.304 707.579 186.304C704.466 186.304 700.825 187.948 698.711 191.356H698.534V175.554H690.191V217.495ZM754.985 204.338C755.571 194.998 750.578 186.304 740.239 186.304C731.017 186.304 724.731 193.236 724.731 202.34C724.731 211.74 730.665 218.319 740.239 218.319C747.111 218.319 752.105 215.264 754.455 208.098H747.111C746.585 209.978 743.881 212.034 740.534 212.034C735.893 212.034 733.309 209.626 733.073 204.338H754.985ZM733.073 199.05C733.19 196.702 734.718 192.59 740.005 192.59C744.058 192.59 745.878 194.822 746.643 199.05H733.073ZM761.327 217.495H769.669V187.127H761.327V217.495ZM769.669 175.554H761.327V182.427H769.669V175.554ZM787.995 178.022H779.655V187.127H774.602V192.707H779.655V210.624C779.655 216.672 784.118 217.85 789.229 217.85C790.875 217.85 792.697 217.79 794.105 217.554V211.035C793.223 211.21 792.401 211.268 791.521 211.268C788.702 211.268 787.995 210.566 787.995 207.746V192.707H794.105V187.127H787.995V178.022ZM799.509 217.495H807.85V175.554H799.509V217.495ZM815.838 217.495H824.179V187.127H815.838V217.495ZM824.179 175.554H815.838V182.427H824.179V175.554ZM860.775 197.818C860.247 190.063 853.667 186.304 846.501 186.304C836.633 186.304 830.994 193.295 830.994 202.752C830.994 211.858 837.162 218.319 846.325 218.319C854.315 218.319 859.894 213.914 860.951 205.866H852.905C852.377 209.567 850.145 212.034 846.267 212.034C841.039 212.034 839.335 206.806 839.335 202.459C839.335 197.992 841.098 192.59 846.442 192.59C849.909 192.59 852.082 194.411 852.61 197.818H860.775ZM866.826 217.495H875.167V201.578C875.167 195.41 877.105 192.883 881.629 192.883C885.506 192.883 886.975 195.351 886.975 200.344V217.495H895.317V198.816C895.317 191.298 893.085 186.304 884.213 186.304C881.101 186.304 877.458 187.948 875.343 191.356H875.167V175.554H866.826V217.495ZM931.617 204.338C932.206 194.998 927.211 186.304 916.874 186.304C907.651 186.304 901.366 193.236 901.366 202.34C901.366 211.74 907.298 218.319 916.874 218.319C923.746 218.319 928.738 215.264 931.09 208.098H923.746C923.217 209.978 920.515 212.034 917.166 212.034C912.527 212.034 909.941 209.626 909.707 204.338H931.617ZM909.707 199.05C909.823 196.702 911.351 192.59 916.639 192.59C920.691 192.59 922.511 194.822 923.275 199.05H909.707Z" fill="#231F20"/>
<path d="M478.255 156.696H486.596V131.907H492.354V126.327H486.596V124.505C486.596 121.98 487.536 121.04 489.77 121.04C490.827 121.04 491.826 121.099 492.824 121.216V114.989C491.414 114.931 489.887 114.755 488.418 114.755C481.604 114.755 478.255 118.631 478.255 123.977V126.327H473.262V131.907H478.255V156.696ZM525.66 126.327H517.318V142.245C517.318 148.413 515.38 150.939 510.856 150.939C506.979 150.939 505.511 148.472 505.511 143.479V126.327H497.171V145.007C497.171 152.525 499.402 157.519 508.274 157.519C511.796 157.519 515.439 155.873 517.554 152.467H517.73V156.696H525.66V126.327ZM513.502 121.627H521.431V114.753H513.502V121.627ZM501.399 121.627H509.33V114.753H501.399V121.627ZM533.178 156.696H541.519V143.009C541.519 137.664 543.634 133.257 549.743 133.257C550.742 133.257 551.975 133.376 552.739 133.552V125.797C552.21 125.621 551.506 125.504 550.918 125.504C546.864 125.504 542.752 128.148 541.227 131.965H541.108V126.327H533.178V156.696Z" fill="#231F20"/>
<path d="M486.538 70.0165H496.583C500.518 70.0165 503.222 71.7205 503.222 76.0085C503.222 80.3552 500.05 81.5298 496.406 81.5298H486.538V70.0165ZM477.315 88.6965H497.64C505.219 88.6965 512.444 85.0538 512.444 76.5365C512.444 71.3085 509.858 67.3725 504.748 65.9045C508.391 64.1418 510.447 61.2645 510.447 57.1525C510.447 49.3392 505.042 46.7552 497.054 46.7552H477.315V88.6965ZM486.538 53.9218H495.174C498.462 53.9218 501.516 54.7432 501.516 58.7378C501.516 62.2632 499.11 63.7312 495.878 63.7312H486.538V53.9218ZM547.454 58.3272H539.112V74.2458C539.112 80.4138 537.174 82.9392 532.65 82.9392C528.774 82.9392 527.304 80.4725 527.304 75.4792V58.3272H518.963V77.0072C518.963 84.5258 521.195 89.5191 530.066 89.5191C533.59 89.5191 537.232 87.8738 539.346 84.4672H539.523V88.6965H547.454V58.3272ZM554.971 88.6965H563.312V72.7778C563.312 66.6098 565.251 64.0832 569.775 64.0832C573.651 64.0832 575.12 66.5512 575.12 71.5432V88.6965H583.46V70.0165C583.46 62.4978 581.23 57.5045 572.359 57.5045C568.835 57.5045 565.192 59.1498 563.078 62.5565H562.902V58.3272H554.971V88.6965ZM612.655 88.6965H620.584V46.7552H612.243V62.0272H612.126C610.246 59.0312 606.723 57.5045 603.139 57.5045C594.21 57.5045 589.687 65.0818 589.687 73.2472C589.687 81.6472 594.151 89.5191 603.315 89.5191C607.192 89.5191 610.599 88.1085 612.538 84.8192H612.655V88.6965ZM612.538 73.4232C612.538 78.4165 610.894 83.2338 605.371 83.2338C600.202 83.2338 598.028 78.2405 598.028 73.4818C598.028 68.4898 599.907 63.7898 605.371 63.7898C610.776 63.7898 612.538 68.4898 612.538 73.4232V73.4232ZM656.83 75.5378C657.415 66.1978 652.423 57.5045 642.084 57.5045C632.862 57.5045 626.576 64.4365 626.576 73.5405C626.576 82.9391 632.51 89.5191 642.084 89.5191C648.956 89.5191 653.951 86.4645 656.299 79.2978H648.956C648.428 81.1778 645.727 83.2338 642.378 83.2338C637.738 83.2338 635.152 80.8245 634.918 75.5378H656.83ZM634.918 70.2512C635.035 67.9018 636.563 63.7898 641.848 63.7898C645.902 63.7898 647.724 66.0218 648.487 70.2512H634.918ZM661.468 78.8272C661.82 86.8751 668.694 89.5191 675.743 89.5191C682.675 89.5191 689.607 86.9338 689.607 78.9458C689.607 73.3058 684.847 71.5432 679.972 70.4272C675.215 69.3112 670.515 68.9005 670.515 65.9045C670.515 63.4378 673.276 63.0845 675.155 63.0845C678.151 63.0845 680.619 63.9658 680.852 67.1965H688.784C688.136 59.7365 682.028 57.5045 675.391 57.5045C668.87 57.5045 662.175 59.5018 662.175 67.2552C662.175 72.6005 666.991 74.3045 671.807 75.3618C677.799 76.6538 681.264 77.5352 681.264 80.0618C681.264 82.9978 678.21 83.9378 675.802 83.9378C672.511 83.9378 669.456 82.4698 669.399 78.8272H661.468ZM693.776 88.6965H721.678V82.4111H704.76L720.563 64.6125V58.3272H694.951V64.6125H709.576L693.776 82.4111V88.6965ZM756.1 75.5378C756.688 66.1978 751.695 57.5045 741.356 57.5045C732.134 57.5045 725.848 64.4365 725.848 73.5405C725.848 82.9391 731.783 89.5191 741.356 89.5191C748.23 89.5191 753.223 86.4645 755.572 79.2978H748.23C747.7 81.1778 744.999 83.2338 741.65 83.2338C737.01 83.2338 734.424 80.8245 734.19 75.5378H756.1ZM734.19 70.2512C734.307 67.9018 735.836 63.7898 741.122 63.7898C745.176 63.7898 746.996 66.0218 747.759 70.2512H734.19ZM762.208 88.6965H770.551V72.7778C770.551 66.6098 772.488 64.0832 777.012 64.0832C780.89 64.0832 782.358 66.5512 782.358 71.5432V88.6965H790.699V70.0165C790.699 62.4978 788.467 57.5045 779.596 57.5045C776.072 57.5045 772.43 59.1498 770.315 62.5565H770.139V58.3272H762.208V88.6965ZM808.791 49.2218H800.451V58.3272H795.399V63.9072H800.451V81.8231C800.451 87.8738 804.914 89.0485 810.024 89.0485C811.67 89.0485 813.491 88.9898 814.9 88.7551V82.2351C814.019 82.4111 813.196 82.4698 812.315 82.4698C809.496 82.4698 808.791 81.7645 808.791 78.9458V63.9072H814.9V58.3272H808.791V49.2218ZM820.068 88.6965H828.41V75.0098C828.41 69.6645 830.524 65.2578 836.634 65.2578C837.632 65.2578 838.866 65.3765 839.63 65.5525V57.7978C839.1 57.6218 838.398 57.5045 837.808 57.5045C833.755 57.5045 829.643 60.1485 828.118 63.9658H828V58.3272H820.068V88.6965ZM863.01 76.9485C863.01 78.7685 862.775 83.9378 856.252 83.9378C853.552 83.9378 851.143 83.1752 851.143 80.0618C851.143 77.0072 853.494 76.1258 856.076 75.5965C858.663 75.1272 861.599 75.0685 863.01 73.8352V76.9485ZM852.082 67.6672C852.376 64.3778 854.432 63.0845 857.606 63.0845C860.54 63.0845 863.01 63.6138 863.01 67.1965C863.01 70.6045 858.25 70.4272 853.139 71.1912C847.97 71.8965 842.8 73.5405 842.8 80.4138C842.8 86.6405 847.384 89.5191 853.139 89.5191C856.842 89.5191 860.719 88.5205 863.36 85.7592C863.419 86.7578 863.654 87.7565 863.95 88.6965H872.407C871.643 87.4632 871.35 84.7018 871.35 81.9405V66.1392C871.35 58.8552 864.066 57.5045 858.015 57.5045C851.202 57.5045 844.212 59.8538 843.74 67.6672H852.082ZM879.222 88.6965H887.563V46.7552H879.222V88.6965ZM924.099 75.5378C924.686 66.1978 919.694 57.5045 909.355 57.5045C900.132 57.5045 893.847 64.4365 893.847 73.5405C893.847 82.9391 899.782 89.5191 909.355 89.5191C916.228 89.5191 921.222 86.4645 923.57 79.2978H916.228C915.699 81.1778 912.998 83.2338 909.648 83.2338C905.01 83.2338 902.423 80.8245 902.188 75.5378H924.099ZM902.188 70.2512C902.306 67.9018 903.834 63.7898 909.12 63.7898C913.174 63.7898 914.995 66.0218 915.758 70.2512H902.188Z" fill="#231F20"/>
<path d="M435.635 338.828V-0.000315276H0V338.828H209.452V338.913H303.94V338.828H435.635Z" fill="#9C9A9B"/>
<path d="M26.1444 174.718H76.8257C118.751 174.718 121.108 200.056 121.108 204.772C121.108 211.701 118.415 221.456 109.487 228.381C116.728 233.577 124.139 243.641 124.139 257.332C124.139 263.314 122.286 272.752 111.34 281.568C102.922 288.334 89.2871 289.43 81.5391 289.43H26.1444V174.718ZM51.3991 220.508H80.0231C90.7977 220.508 97.0257 216.578 97.0257 207.449C97.0257 197.537 90.1284 194.392 81.3684 194.392H51.3991V220.508ZM51.3991 269.764H81.0351C88.6137 269.764 100.058 269.449 100.058 253.713C100.058 240.812 90.4604 240.178 85.7471 240.178H51.3991V269.764Z" fill="white"/>
<path d="M216.053 174.721V194.392L153.249 269.766H214.819V289.433H125.018V269.766L186.422 194.392H125.018V174.721H216.053Z" fill="white"/>
<path d="M417.991 289.433H392.231L383.809 266.46H338.348L329.76 289.433H304.004L346.764 174.721H375.897L417.991 289.433ZM346.26 246.789H377.748L361.415 202.257L346.26 246.789Z" fill="white"/>
<path d="M267.086 271.066C269.693 269.689 271.848 267.854 273.549 265.557C275.25 263.262 276.525 260.65 277.376 257.725C278.226 254.798 278.652 251.729 278.652 248.514C278.652 244.843 278.31 241.37 277.63 238.098C276.95 234.829 275.816 231.93 274.229 229.406C272.64 226.883 270.544 224.873 267.937 223.379C265.328 221.891 262.04 221.143 258.073 221.143C254.672 221.143 251.75 221.831 249.314 223.207C246.874 224.586 244.834 226.453 243.192 228.803C241.546 231.155 240.356 233.855 239.62 236.895C238.881 239.935 238.514 243.122 238.514 246.449C238.514 249.663 238.825 252.847 239.45 256.003C240.072 259.161 241.15 262.002 242.681 264.525C244.212 267.05 246.224 269.115 248.718 270.722C251.212 272.33 254.332 273.131 258.073 273.131C261.474 273.131 264.477 272.443 267.086 271.066V271.066ZM300.165 300.675C299.201 305.263 297.13 309.539 293.957 313.501C290.782 317.459 286.19 320.817 280.182 323.571C274.17 326.326 266.122 327.702 256.032 327.702C251.721 327.702 247.329 327.155 242.852 326.067C238.372 324.975 234.289 323.283 230.606 320.987C226.921 318.691 223.86 315.738 221.422 312.123C218.984 308.509 217.596 304.175 217.256 299.126H241.236C242.368 303.715 244.578 306.899 247.869 308.681C251.156 310.458 254.953 311.349 259.264 311.349C266.066 311.349 271.025 309.283 274.144 305.15C277.261 301.019 278.762 295.797 278.652 289.485V277.779H278.31C275.701 282.486 271.989 285.957 267.172 288.195C262.35 290.431 257.278 291.551 251.95 291.551C245.373 291.551 239.705 290.375 234.944 288.022C230.181 285.671 226.269 282.457 223.208 278.382C220.146 274.31 217.906 269.545 216.49 264.094C215.072 258.645 214.365 252.877 214.365 246.793C214.365 241.055 215.186 235.518 216.83 230.181C218.473 224.845 220.884 220.139 224.058 216.065C227.232 211.993 231.172 208.749 235.878 206.338C240.582 203.927 245.997 202.723 252.12 202.723C257.902 202.723 262.976 203.815 267.341 205.994C271.705 208.175 275.361 211.847 278.31 217.011H278.652V205.134H301.61V288.453C301.61 292.011 301.126 296.083 300.165 300.675" fill="white"/>
</svg>
