<?xml version="1.0" encoding="UTF-8"?>
<!DOCTYPE svg PUBLIC "-//W3C//DTD SVG 1.1//EN" "http://www.w3.org/Graphics/SVG/1.1/DTD/svg11.dtd">
<svg xmlns="http://www.w3.org/2000/svg" version="1.1" width="500px" height="325px" style="shape-rendering:geometricPrecision; text-rendering:geometricPrecision; image-rendering:optimizeQuality; fill-rule:evenodd; clip-rule:evenodd" xmlns:xlink="http://www.w3.org/1999/xlink">
<g><path style="opacity:0.984" fill="#ee1b24" d="M 318.5,2.5 C 385.28,-0.343437 440.78,22.9899 485,72.5C 489.027,77.6938 492.86,83.0272 496.5,88.5C 480.844,89.6662 465.177,89.8329 449.5,89C 397.288,38.5575 337.288,26.5575 269.5,53C 250.6,61.9 233.934,73.9 219.5,89C 203.5,89.6667 187.5,89.6667 171.5,89C 207.445,38.2691 256.445,9.43575 318.5,2.5 Z"/></g>
<g><path style="opacity:0.981" fill="#004685" d="M 346.5,59.5 C 347.5,59.5 348.5,59.5 349.5,59.5C 349.5,79.8333 349.5,100.167 349.5,120.5C 363.167,120.5 376.833,120.5 390.5,120.5C 390.5,133.167 390.5,145.833 390.5,158.5C 376.833,158.5 363.167,158.5 349.5,158.5C 349.018,197.228 349.518,235.894 351,274.5C 354.675,281.172 360.342,284.172 368,283.5C 372.954,283.387 377.787,282.553 382.5,281C 388.642,278.254 394.642,275.587 400.5,273C 397.084,285.827 393.584,298.66 390,311.5C 374.817,320.113 358.651,322.613 341.5,319C 321.709,311.854 310.875,297.688 309,276.5C 308.5,237.168 308.333,197.835 308.5,158.5C 297.167,158.5 285.833,158.5 274.5,158.5C 274.5,145.833 274.5,133.167 274.5,120.5C 285.833,120.5 297.167,120.5 308.5,120.5C 308.167,106.817 308.501,93.1504 309.5,79.5C 322.055,73.0591 334.388,66.3925 346.5,59.5 Z"/></g>
<g><path style="opacity:0.981" fill="#004685" d="M 99.5,116.5 C 131.244,115.284 156.911,126.95 176.5,151.5C 168.833,160.833 161.167,170.167 153.5,179.5C 142.382,168.107 129.049,160.607 113.5,157C 70.7808,155.717 47.4474,176.383 43.5,219C 44.8474,252.67 61.8474,273.337 94.5,281C 117.878,283.541 137.378,276.041 153,258.5C 161.021,267.687 168.855,277.02 176.5,286.5C 158.497,309.751 134.663,321.417 105,321.5C 63.1302,321.081 32.1302,302.748 12,266.5C -2.08216,231.042 -0.415493,196.376 17,162.5C 36.9602,133.767 64.4602,118.434 99.5,116.5 Z"/></g>
<g><path style="opacity:0.981" fill="#004584" d="M 198.5,120.5 C 212.167,120.5 225.833,120.5 239.5,120.5C 239.5,186.167 239.5,251.833 239.5,317.5C 225.833,317.5 212.167,317.5 198.5,317.5C 198.5,251.833 198.5,186.167 198.5,120.5 Z"/></g>
<g><path style="opacity:0.982" fill="#004584" d="M 430.5,120.5 C 444.167,120.5 457.833,120.5 471.5,120.5C 471.5,186.167 471.5,251.833 471.5,317.5C 457.833,317.5 444.167,317.5 430.5,317.5C 430.5,251.833 430.5,186.167 430.5,120.5 Z"/></g>
</svg>
