<svg xmlns="http://www.w3.org/2000/svg" width="247.492" height="80" viewBox="0 0 247.492 80"><g data-name="Group 66"><g data-name="Group 60" fill="#6f7072"><path data-name="Path 191" d="M.47 52.213h.852v3.868l3.879-3.868h1.111l-4.174 4.065 4.535 4.561H5.499l-4.177-4.312v4.312H.47z"/><path data-name="Path 192" d="M11.451 59.826h-.024a2.215 2.215 0 0 1-2 1.161c-1.792 0-2.074-1.211-2.074-1.781 0-2.114 2.249-2.209 3.879-2.209h.143v-.322c0-1.075-.384-1.62-1.434-1.62a3.349 3.349 0 0 0-1.854.519v-.755a4.986 4.986 0 0 1 1.854-.43c1.558 0 2.213.7 2.213 2.346v2.78a8.977 8.977 0 0 0 .062 1.324h-.768zm-.076-2.164h-.22c-1.346 0-2.953.137-2.953 1.523 0 .828.594 1.134 1.311 1.134 1.827 0 1.865-1.593 1.865-2.273z"/><path data-name="Path 193" d="M16.736 55.203h-1.432v4.078c0 .569.21 1.037.839 1.037a1.81 1.81 0 0 0 .717-.148l.051.644a2.887 2.887 0 0 1-.953.172c-1.384 0-1.432-.953-1.432-2.1v-3.683h-1.239v-.669h1.234v-1.518l.779-.271v1.79h1.432z"/><path data-name="Path 194" d="M18.137 51.571h.779V55.6h.024a2.134 2.134 0 0 1 1.966-1.211c1.693 0 2.149 1.123 2.149 2.681v3.769h-.782v-3.756c0-1.09-.21-2.028-1.5-2.028-1.384 0-1.865 1.309-1.865 2.41v3.374h-.779z"/><path data-name="Path 195" d="M27.471 54.389c2.039 0 2.942 1.582 2.942 3.3s-.9 3.3-2.942 3.3-2.942-1.582-2.942-3.3.908-3.3 2.942-3.3zm0 5.929c1.359 0 2.088-1.174 2.088-2.63s-.724-2.633-2.088-2.633-2.09 1.174-2.09 2.633.735 2.63 2.09 2.63z"/><path data-name="Path 196" d="M31.897 51.571h.779v9.268h-.779z"/><path data-name="Path 197" d="M35.422 52.857h-.779v-1.039h.779zm-.779 1.677h.779v6.3h-.779z"/><path data-name="Path 198" d="M36.907 59.926a3.717 3.717 0 0 0 1.644.393c.741 0 1.4-.406 1.4-1.123 0-1.5-3.03-1.262-3.03-3.089 0-1.247 1.015-1.717 2.052-1.717a4.925 4.925 0 0 1 1.558.285l-.075.677a3.681 3.681 0 0 0-1.4-.3c-.8 0-1.359.247-1.359 1.05 0 1.174 3.1 1.026 3.1 3.089 0 1.335-1.249 1.792-2.2 1.792a4.743 4.743 0 0 1-1.768-.3z"/><path data-name="Path 199" d="M46.303 55.375a3.57 3.57 0 0 0-1.346-.32 2.346 2.346 0 0 0-2.372 2.634 2.386 2.386 0 0 0 2.284 2.63 3.972 3.972 0 0 0 1.423-.285l.073.733a4.669 4.669 0 0 1-1.618.221 2.987 2.987 0 0 1-3.017-3.3 3.054 3.054 0 0 1 3.114-3.3 4.756 4.756 0 0 1 1.52.245z"/><path data-name="Path 200" d="M47.694 51.571h.779V55.6h.026a2.129 2.129 0 0 1 1.964-1.211c1.693 0 2.149 1.123 2.149 2.681v3.769h-.776v-3.756c0-1.09-.21-2.028-1.5-2.028-1.381 0-1.865 1.309-1.865 2.41v3.374h-.779z"/><path data-name="Path 201" d="M58.8 60.641a5.2 5.2 0 0 1-1.829.346c-2.088 0-2.867-1.41-2.867-3.3 0-1.929 1.064-3.3 2.657-3.3 1.779 0 2.509 1.432 2.509 3.125v.4h-4.312a2.127 2.127 0 0 0 2.074 2.408 4.064 4.064 0 0 0 1.768-.468zm-.382-3.4c0-1.1-.446-2.187-1.606-2.187a2.06 2.06 0 0 0-1.854 2.187z"/><path data-name="Path 202" d="M64.31 52.213h.854v3.818h4.358v-3.818h.854v8.626h-.854v-4.067h-4.36v4.067h-.854z"/><path data-name="Path 203" d="M74.911 54.389c2.039 0 2.942 1.582 2.942 3.3s-.9 3.3-2.942 3.3-2.942-1.582-2.942-3.3.904-3.3 2.942-3.3zm0 5.929c1.359 0 2.09-1.174 2.09-2.63s-.73-2.633-2.09-2.633-2.09 1.174-2.09 2.633.731 2.63 2.09 2.63z"/><path data-name="Path 204" d="M83.436 55.375a3.581 3.581 0 0 0-1.348-.32 2.346 2.346 0 0 0-2.373 2.634 2.388 2.388 0 0 0 2.286 2.63 3.97 3.97 0 0 0 1.421-.285l.073.733a4.654 4.654 0 0 1-1.616.222 2.989 2.989 0 0 1-3.017-3.3 3.054 3.054 0 0 1 3.117-3.3 4.756 4.756 0 0 1 1.52.245z"/><path data-name="Path 205" d="M84.824 51.571h.779V55.6h.026a2.131 2.131 0 0 1 1.964-1.211c1.693 0 2.149 1.123 2.149 2.681v3.769h-.779v-3.756c0-1.09-.21-2.028-1.494-2.028-1.384 0-1.867 1.309-1.867 2.41v3.374h-.779z"/><path data-name="Path 206" d="M91.221 59.926a3.724 3.724 0 0 0 1.644.393c.741 0 1.4-.406 1.4-1.123 0-1.5-3.028-1.262-3.028-3.089 0-1.247 1.013-1.717 2.05-1.717a4.915 4.915 0 0 1 1.558.285l-.075.677a3.663 3.663 0 0 0-1.4-.3c-.8 0-1.357.247-1.357 1.05 0 1.174 3.1 1.026 3.1 3.089 0 1.335-1.247 1.792-2.2 1.792a4.732 4.732 0 0 1-1.765-.3z"/><path data-name="Path 207" d="M100.619 55.375a3.57 3.57 0 0 0-1.346-.32 2.346 2.346 0 0 0-2.372 2.634 2.386 2.386 0 0 0 2.284 2.63 3.97 3.97 0 0 0 1.421-.285l.075.733a4.669 4.669 0 0 1-1.618.221 2.987 2.987 0 0 1-3.017-3.3 3.054 3.054 0 0 1 3.114-3.3 4.769 4.769 0 0 1 1.52.245z"/><path data-name="Path 208" d="M102.01 51.571h.779V55.6h.024a2.131 2.131 0 0 1 1.964-1.211c1.695 0 2.152 1.123 2.152 2.681v3.769h-.779v-3.756c0-1.09-.21-2.028-1.5-2.028-1.384 0-1.865 1.309-1.865 2.41v3.374h-.779z"/><path data-name="Path 209" d="M113.807 59.357c0 .483 0 .975.049 1.483h-.757v-1.126h-.02a2 2 0 0 1-2.039 1.273c-1.558 0-2.152-1.039-2.152-2.423v-4.029h.779v3.834c0 1.187.421 1.951 1.494 1.951 1.423 0 1.867-1.247 1.867-2.3v-3.485h.779z"/><path data-name="Path 210" d="M115.769 51.571h.779v9.268h-.779z"/><path data-name="Path 211" d="M122.742 60.641a5.215 5.215 0 0 1-1.829.346c-2.088 0-2.867-1.41-2.867-3.3 0-1.929 1.064-3.3 2.657-3.3 1.779 0 2.507 1.432 2.507 3.125v.4h-4.312a2.129 2.129 0 0 0 2.077 2.408 4.065 4.065 0 0 0 1.768-.468zm-.384-3.4c0-1.1-.444-2.187-1.606-2.187a2.06 2.06 0 0 0-1.854 2.187z"/></g><g data-name="Group 61" fill="#7a9a01"><path data-name="Path 212" d="M128.254 52.213h1.679l3.807 6.945h.024v-6.945H135v8.626h-1.582l-3.9-7.095h-.029v7.095h-1.235z"/><path data-name="Path 213" d="M139.879 54.389a3.109 3.109 0 0 1 3.2 3.3 3.208 3.208 0 1 1-6.413 0 3.11 3.11 0 0 1 3.213-3.3zm0 5.658a2.112 2.112 0 0 0 1.966-2.358 2 2 0 1 0-3.943 0 2.113 2.113 0 0 0 1.977 2.358z"/><path data-name="Path 214" d="M144.648 54.535h1.086v.978h.026a1.915 1.915 0 0 1 1.642-1.124 3.34 3.34 0 0 1 .768.086v1.037a1.739 1.739 0 0 0-.644-.11c-1.037 0-1.717.989-1.717 2.571v2.866h-1.161z"/><path data-name="Path 215" d="M153.92 59.948h-.024a2.529 2.529 0 0 1-2.149 1.039c-1.9 0-2.705-1.693-2.705-3.412 0-1.69.887-3.186 2.716-3.186a2.247 2.247 0 0 1 2.09 1.013h.024v-3.831h1.161v9.268h-1.113zm-1.9.1c1.309 0 1.854-1.3 1.854-2.348 0-1.172-.6-2.372-1.867-2.372s-1.754 1.187-1.73 2.335c-.027.985.492 2.385 1.741 2.385z"/><path data-name="Path 216" d="M157.019 54.535h1.088v.978h.026a1.915 1.915 0 0 1 1.642-1.124 3.3 3.3 0 0 1 .766.086v1.037a1.72 1.72 0 0 0-.642-.11c-1.037 0-1.717.989-1.717 2.571v2.866h-1.163z"/><path data-name="Path 217" d="M161.831 51.571h1.163v3.866h.024a2.311 2.311 0 0 1 2.026-1.048c1.631 0 2.361 1.013 2.361 2.7v3.747h-1.163v-3.261c0-1.47-.32-2.187-1.335-2.249-1.322 0-1.913 1.064-1.913 2.6v2.917h-1.163z"/><path data-name="Path 218" d="M174.224 60.581a4.873 4.873 0 0 1-1.99.406c-2.238 0-3.262-1.359-3.262-3.412a2.926 2.926 0 0 1 2.953-3.186c2.1 0 2.78 1.531 2.78 3.557h-4.5a2.063 2.063 0 0 0 2.077 2.1 3.743 3.743 0 0 0 1.942-.629zm-.755-3.5a1.59 1.59 0 0 0-1.569-1.757 1.747 1.747 0 0 0-1.695 1.757z"/><path data-name="Path 219" d="M177.656 53.129h-1.311v-1.311h1.311zm-1.236 1.406h1.161v6.3h-1.161z"/><path data-name="Path 220" d="M179.71 54.535h1.125v1h.024a2.265 2.265 0 0 1 2.068-1.146c1.631 0 2.361 1.013 2.361 2.7v3.75h-1.167v-3.264c0-1.47-.32-2.187-1.335-2.249-1.322 0-1.913 1.064-1.913 2.6v2.913h-1.163z"/><path data-name="Path 221" d="M186.752 57.042h3.175v.938h-3.175z"/><path data-name="Path 222" d="M190.426 52.213h1.361l2.063 7.39h.024l1.843-7.39h1.754l1.867 7.39h.024l2.063-7.39h1.311l-2.659 8.626h-1.59l-1.882-7.54h-.026l-1.892 7.54h-1.653z"/><path data-name="Path 223" d="M208.236 60.581a4.863 4.863 0 0 1-1.99.406c-2.238 0-3.262-1.359-3.262-3.412a2.927 2.927 0 0 1 2.953-3.186c2.1 0 2.78 1.531 2.78 3.557h-4.5a2.063 2.063 0 0 0 2.077 2.1 3.743 3.743 0 0 0 1.942-.629zm-.755-3.5a1.59 1.59 0 0 0-1.569-1.757 1.747 1.747 0 0 0-1.695 1.757z"/><path data-name="Path 224" d="M209.814 59.603a3.1 3.1 0 0 0 1.445.444c.532 0 1.185-.221 1.185-.9 0-1.147-2.73-1.048-2.73-2.816 0-1.311.975-1.94 2.222-1.94a4.9 4.9 0 0 1 1.448.245l-.1 1.015a3.377 3.377 0 0 0-1.223-.322c-.594 0-1.112.247-1.112.766 0 1.284 2.73.914 2.73 2.931a1.982 1.982 0 0 1-2.2 1.964 3.617 3.617 0 0 1-1.73-.346z"/><path data-name="Path 225" d="M218.444 55.475h-1.668v3.449a1 1 0 0 0 .975 1.123 1.449 1.449 0 0 0 .792-.221v.989a3.7 3.7 0 0 1-.989.172c-1.2 0-1.942-.569-1.942-1.829v-3.683h-1.421v-.94h1.421v-1.456l1.163-.371v1.827h1.668z"/><path data-name="Path 226" d="M220.662 55.475h-1.483v-.94h1.483v-.578c0-1.534.395-2.536 2.114-2.536a4.99 4.99 0 0 1 .779.075l-.051.94a1.852 1.852 0 0 0-.556-.075c-1 0-1.125.642-1.125 1.5v.677h1.668v.94h-1.668v5.365h-1.161z"/><path data-name="Path 227" d="M225.018 54.98a4 4 0 0 1 2.074-.591c1.805 0 2.536.889 2.536 2.608v2.606a10.167 10.167 0 0 0 .049 1.236h-1.088v-.814h-.024a2.346 2.346 0 0 1-1.953.962c-1.359 0-2.31-.591-2.31-1.964 0-1.582 1.73-2.077 2.928-2.077.457 0 .779 0 1.236.024 0-1.086-.395-1.644-1.558-1.644a2.949 2.949 0 0 0-1.827.644zm3.447 2.855c-.247 0-.494-.024-.741-.024-.631 0-2.187.1-2.187 1.211a1.109 1.109 0 0 0 1.174 1.025 1.591 1.591 0 0 0 1.754-1.655z"/><path data-name="Path 228" d="M231.749 51.571h1.161v9.268h-1.161z"/><path data-name="Path 229" d="M239.872 60.581a4.864 4.864 0 0 1-1.99.406c-2.235 0-3.262-1.359-3.262-3.412a2.927 2.927 0 0 1 2.955-3.186c2.1 0 2.778 1.531 2.778 3.557h-4.5a2.061 2.061 0 0 0 2.077 2.1 3.734 3.734 0 0 0 1.94-.629zm-.755-3.5a1.59 1.59 0 0 0-1.569-1.757 1.744 1.744 0 0 0-1.693 1.757z"/><path data-name="Path 230" d="M241.92 54.535h1.126v1h.024a2.265 2.265 0 0 1 2.063-1.147c1.633 0 2.361 1.013 2.361 2.7v3.751h-1.161v-3.264c0-1.47-.322-2.187-1.335-2.249-1.322 0-1.915 1.064-1.915 2.6v2.913h-1.161z"/></g><g data-name="Group 62" fill="#6f7072"><path data-name="Path 231" d="M6.278 69.67a4.47 4.47 0 0 0-1.929-.371 3.388 3.388 0 0 0-3.5 3.718c0 2.176 1.223 3.721 3.5 3.721a4.284 4.284 0 0 0 1.929-.371l.049.741a4.655 4.655 0 0 1-1.977.371 4.112 4.112 0 0 1-4.349-4.462 4.16 4.16 0 0 1 4.349-4.46 5.6 5.6 0 0 1 1.977.32z"/><path data-name="Path 232" d="M12.143 76.317h-.024a2.217 2.217 0 0 1-2 1.163c-1.792 0-2.074-1.211-2.074-1.781 0-2.114 2.249-2.211 3.879-2.211h.148v-.32c0-1.077-.384-1.622-1.434-1.622a3.351 3.351 0 0 0-1.854.521v-.759a4.943 4.943 0 0 1 1.854-.43c1.558 0 2.213.7 2.213 2.346v2.784a8.946 8.946 0 0 0 .062 1.322h-.77zm-.073-2.163h-.223c-1.346 0-2.953.135-2.953 1.52 0 .828.594 1.136 1.309 1.136 1.829 0 1.867-1.6 1.867-2.273z"/><path data-name="Path 233" d="M17.429 71.696H16v4.076c0 .569.21 1.039.839 1.039a1.81 1.81 0 0 0 .717-.148l.051.644a2.887 2.887 0 0 1-.953.172c-1.384 0-1.434-.953-1.434-2.1v-3.683h-1.24v-.668h1.236v-1.52l.781-.271v1.791h1.432z"/><path data-name="Path 234" d="M18.83 68.066h.779v4.029h.024a2.14 2.14 0 0 1 1.966-1.209c1.693 0 2.149 1.121 2.149 2.679v3.769h-.779v-3.76c0-1.088-.21-2.028-1.5-2.028-1.384 0-1.865 1.311-1.865 2.412v3.372h-.779z"/><path data-name="Path 235" d="M28.169 70.882c2.039 0 2.942 1.58 2.942 3.3s-.9 3.3-2.942 3.3-2.942-1.582-2.942-3.3.903-3.3 2.942-3.3zm0 5.929c1.359 0 2.088-1.174 2.088-2.63s-.728-2.635-2.088-2.635-2.09 1.176-2.09 2.635.73 2.627 2.09 2.627z"/><path data-name="Path 236" d="M32.589 68.066h.779v9.268h-.779z"/><path data-name="Path 237" d="M36.115 69.348h-.779v-1.039h.779zm-.779 1.679h.779v6.3h-.779z"/><path data-name="Path 238" d="M42.186 71.868a3.6 3.6 0 0 0-1.348-.322 2.347 2.347 0 0 0-2.372 2.635 2.388 2.388 0 0 0 2.286 2.63 4.018 4.018 0 0 0 1.421-.285l.075.73a4.674 4.674 0 0 1-1.62.223 2.989 2.989 0 0 1-3.017-3.3 3.055 3.055 0 0 1 3.116-3.3 4.782 4.782 0 0 1 1.52.245z"/><path data-name="Path 239" d="M53.292 74.317a2.922 2.922 0 0 1-3.127 3.164 2.922 2.922 0 0 1-3.127-3.164v-5.613h.854v5.613a2.279 2.279 0 1 0 4.548 0v-5.613h.852z"/><path data-name="Path 240" d="M55.267 72.508a14.756 14.756 0 0 0-.051-1.485h.755v1.125h.024a2 2 0 0 1 2.039-1.271c1.558 0 2.152 1.035 2.152 2.421v4.027h-.779v-3.826c0-1.185-.421-1.953-1.5-1.953-1.421 0-1.865 1.249-1.865 2.3v3.484h-.779z"/><path data-name="Path 241" d="M62.924 69.348h-.779v-1.039h.779zm-.779 1.679h.779v6.3h-.779z"/><path data-name="Path 242" d="M67.08 77.33h-.912l-2.136-6.3h.852l1.743 5.451h.024l1.829-5.451h.814z"/><path data-name="Path 243" d="M74.611 77.134a5.2 5.2 0 0 1-1.829.346c-2.088 0-2.867-1.41-2.867-3.3 0-1.929 1.064-3.3 2.657-3.3 1.779 0 2.509 1.432 2.509 3.125v.395h-4.312a2.129 2.129 0 0 0 2.074 2.41 4.035 4.035 0 0 0 1.768-.47zm-.382-3.4c0-1.1-.446-2.189-1.606-2.189a2.062 2.062 0 0 0-1.854 2.189z"/><path data-name="Path 244" d="M76.573 72.438a11.064 11.064 0 0 0-.051-1.41h.778v1.211h.024a1.869 1.869 0 0 1 1.62-1.357 2.276 2.276 0 0 1 .543.073v.816a1.982 1.982 0 0 0-.567-.075c-1.236 0-1.569 1.384-1.569 2.52v3.114h-.779z"/><path data-name="Path 245" d="M80.21 76.416a3.688 3.688 0 0 0 1.644.4c.741 0 1.4-.408 1.4-1.125 0-1.494-3.03-1.26-3.03-3.087 0-1.249 1.015-1.717 2.052-1.717a4.966 4.966 0 0 1 1.558.282l-.075.68a3.675 3.675 0 0 0-1.4-.3c-.8 0-1.357.249-1.357 1.053 0 1.172 3.1 1.026 3.1 3.087 0 1.337-1.249 1.794-2.2 1.794a4.743 4.743 0 0 1-1.768-.3z"/><path data-name="Path 246" d="M86.285 69.348h-.779v-1.039h.779zm-.779 1.679h.779v6.3h-.779z"/><path data-name="Path 247" d="M90.97 71.696h-1.432v4.076c0 .569.21 1.039.841 1.039a1.807 1.807 0 0 0 .715-.148l.051.644a2.884 2.884 0 0 1-.951.172c-1.386 0-1.434-.953-1.434-2.1v-3.683h-1.237v-.668h1.236v-1.52l.779-.271v1.791h1.432z"/><path data-name="Path 248" d="M94.128 76.282h.011l1.816-5.254h.816l-2.522 7.242c-.3.865-.741 1.73-1.618 1.73a3.732 3.732 0 0 1-.841-.1l.075-.666a1.6 1.6 0 0 0 .58.1c.666 0 .889-.556 1.136-1.373l.161-.556-2.236-6.377h.854z"/><path data-name="Path 249" d="M103.762 70.882c2.041 0 2.942 1.58 2.942 3.3s-.9 3.3-2.942 3.3-2.939-1.582-2.939-3.3.903-3.3 2.939-3.3zm0 5.929c1.362 0 2.09-1.174 2.09-2.63s-.728-2.635-2.09-2.635-2.088 1.176-2.088 2.635.731 2.627 2.088 2.627z"/><path data-name="Path 250" d="M108.714 71.696h-1.273v-.669h1.273v-.457c0-1.322.051-2.657 1.668-2.657a1.817 1.817 0 0 1 .73.124l-.051.68a1.386 1.386 0 0 0-.618-.135c-1.064 0-.951 1.147-.951 1.9v.543h1.421v.669h-1.42v5.634h-.779z"/><path data-name="Path 251" d="M118.461 68.704h.964l3.423 8.626h-.889l-.927-2.313h-4.35l-.927 2.308h-.828zm.421.816l-1.88 4.76h3.745z"/><path data-name="Path 252" d="M123.919 71.028h.779l-.049 1.15h.024a2.175 2.175 0 0 1 2.015-1.3c1.854 0 2.6 1.381 2.6 3.3 0 1.865-.865 3.3-2.6 3.3a1.955 1.955 0 0 1-1.969-1.223h-.02v3.67h-.78zm2.646.519c-1.384 0-1.867 1.483-1.867 2.635s.483 2.63 1.867 2.63c1.483 0 1.865-1.41 1.865-2.63s-.381-2.636-1.864-2.636z"/><path data-name="Path 253" d="M130.799 71.028h.782l-.049 1.15h.024a2.178 2.178 0 0 1 2.015-1.3c1.854 0 2.6 1.381 2.6 3.3 0 1.865-.865 3.3-2.6 3.3a1.95 1.95 0 0 1-1.964-1.225h-.026v3.67h-.779zm2.646.519c-1.384-.001-1.864 1.482-1.864 2.634s.483 2.63 1.867 2.63c1.483 0 1.865-1.41 1.865-2.63s-.385-2.635-1.868-2.635z"/><path data-name="Path 254" d="M137.754 68.066h.779v9.268h-.779z"/><path data-name="Path 255" d="M141.278 69.348h-.779v-1.039h.779zm-.779 1.679h.779v6.3h-.779z"/><path data-name="Path 256" d="M147.473 77.134a5.2 5.2 0 0 1-1.829.346c-2.088 0-2.867-1.41-2.867-3.3 0-1.929 1.064-3.3 2.657-3.3 1.781 0 2.509 1.432 2.509 3.125v.395h-4.312a2.129 2.129 0 0 0 2.074 2.41 4.034 4.034 0 0 0 1.768-.47zm-.382-3.4c0-1.1-.446-2.189-1.606-2.189a2.062 2.062 0 0 0-1.854 2.19z"/><path data-name="Path 257" d="M154.423 77.33h-.776v-1h-.024a2.023 2.023 0 0 1-1.966 1.15c-1.73 0-2.6-1.434-2.6-3.3 0-1.918.741-3.3 2.6-3.3a2.127 2.127 0 0 1 1.966 1.209h.024v-4.023h.777zm-2.644-.519c1.386 0 1.867-1.483 1.867-2.63s-.479-2.635-1.866-2.635c-1.483 0-1.865 1.41-1.865 2.635s.382 2.631 1.865 2.631z"/><path data-name="Path 258" d="M159.602 76.231a3.4 3.4 0 0 0 1.9.508 1.722 1.722 0 0 0 1.94-1.768c0-1.695-3.954-1.9-3.954-4.166 0-1.384 1.211-2.246 2.732-2.246a5.129 5.129 0 0 1 1.693.282l-.137.779a3.522 3.522 0 0 0-1.569-.32c-.889 0-1.865.371-1.865 1.483 0 1.73 3.954 1.741 3.954 4.261 0 1.743-1.5 2.436-2.831 2.436a4.908 4.908 0 0 1-1.953-.371z"/><path data-name="Path 259" d="M170.039 71.868a3.574 3.574 0 0 0-1.346-.322 2.347 2.347 0 0 0-2.372 2.635 2.386 2.386 0 0 0 2.284 2.63 4.018 4.018 0 0 0 1.421-.285l.075.73a4.669 4.669 0 0 1-1.618.223 2.987 2.987 0 0 1-3.017-3.3 3.054 3.054 0 0 1 3.114-3.3 4.769 4.769 0 0 1 1.52.245z"/><path data-name="Path 260" d="M172.21 69.348h-.779v-1.039h.779zm-.779 1.679h.779v6.3h-.779z"/><path data-name="Path 261" d="M178.404 77.134a5.205 5.205 0 0 1-1.829.346c-2.088 0-2.867-1.41-2.867-3.3 0-1.929 1.064-3.3 2.657-3.3 1.779 0 2.509 1.432 2.509 3.125v.395h-4.314a2.13 2.13 0 0 0 2.076 2.41 4.035 4.035 0 0 0 1.768-.47zm-.384-3.4c0-1.1-.444-2.189-1.606-2.189a2.062 2.062 0 0 0-1.854 2.189z"/><path data-name="Path 262" d="M180.364 72.508a14.757 14.757 0 0 0-.051-1.485h.755v1.125h.024a2 2 0 0 1 2.039-1.271c1.558 0 2.152 1.035 2.152 2.421v4.027h-.779v-3.826c0-1.185-.421-1.953-1.5-1.953-1.421 0-1.865 1.249-1.865 2.3v3.484h-.779z"/><path data-name="Path 263" d="M191.346 71.868a3.584 3.584 0 0 0-1.346-.322 2.348 2.348 0 0 0-2.374 2.635 2.388 2.388 0 0 0 2.286 2.63 4.018 4.018 0 0 0 1.421-.285l.075.73a4.674 4.674 0 0 1-1.62.223 2.987 2.987 0 0 1-3.014-3.3 3.054 3.054 0 0 1 3.114-3.3 4.769 4.769 0 0 1 1.52.245z"/><path data-name="Path 264" d="M196.963 77.134a5.2 5.2 0 0 1-1.829.346c-2.088 0-2.867-1.41-2.867-3.3 0-1.929 1.064-3.3 2.657-3.3 1.781 0 2.509 1.432 2.509 3.125v.395h-4.312a2.128 2.128 0 0 0 2.073 2.408 4.034 4.034 0 0 0 1.768-.47zm-.384-3.4c0-1.1-.444-2.189-1.606-2.189a2.06 2.06 0 0 0-1.851 2.189z"/><path data-name="Path 265" d="M198.441 76.416a3.686 3.686 0 0 0 1.642.4c.741 0 1.4-.408 1.4-1.125 0-1.494-3.028-1.26-3.028-3.087 0-1.249 1.015-1.717 2.052-1.717a4.964 4.964 0 0 1 1.556.282l-.073.68a3.683 3.683 0 0 0-1.4-.3c-.8 0-1.359.249-1.359 1.053 0 1.172 3.1 1.026 3.1 3.087 0 1.337-1.247 1.794-2.2 1.794a4.736 4.736 0 0 1-1.768-.3z"/></g><g data-name="Group 64"><g data-name="Group 63" fill="#7a9a01"><path data-name="Path 266" d="M.06 42.334V0h5.323v24.071h2.238a4.805 4.805 0 0 0 4.475-2.178l5.02-8.586h6.046l-3.809 6.532c-1.15 1.995-2.9 4.9-4.537 5.32v.119c4.294.847 6.653 3.39 6.653 8.529v8.527h-5.322v-7.922c0-3.628-1.935-5.263-4.716-5.263H5.383v13.185z"/><path data-name="Path 267" d="M49.656 42.334V26.006c0-5.442-4.6-8.224-9.434-8.224-5.868 0-9.557 4.654-9.557 10.16 0 5.382 3.932 9.917 9.5 9.917a9.4 9.4 0 0 0 7.317-3.992v6.291a11.852 11.852 0 0 1-7.86 2.78c-8.346 0-14.273-6.894-14.273-15.421 0-8.286 5.684-14.818 15-14.818 8.95 0 14.635 5.444 14.635 13.79v15.845z"/><path data-name="Path 268" d="M76.697 18.385h-10.4v15.241c0 2.721 1.271 3.628 3.994 3.628h6.406v5.08h-7.139c-5.442 0-8.586-3.63-8.586-9.374V6.049h5.325v7.258h10.4z"/><path data-name="Path 269" d="M80.267 42.334V0h5.323v15.847a10.113 10.113 0 0 1 7.439-3.147c6.713 0 12.033 2.9 12.033 12.7v16.934h-5.32V25.399c0-5.925-3.266-7.618-7.077-7.618-3.871 0-7.075 3.145-7.075 7.618v16.935z"/><path data-name="Path 270" d="M124.602 12.7a14.882 14.882 0 0 1 15.057 15.12 15.058 15.058 0 1 1-30.115 0 14.88 14.88 0 0 1 15.058-15.12zm0 25.159c5.5 0 9.5-4.113 9.5-10.038s-3.992-10.038-9.5-10.038-9.493 4.109-9.493 10.037 3.99 10.039 9.493 10.039z"/></g></g></g></svg>