<?xml version="1.0" encoding="UTF-8" standalone="no"?>
<!DOCTYPE svg PUBLIC "-//W3C//DTD SVG 1.1//EN" "http://www.w3.org/Graphics/SVG/1.1/DTD/svg11.dtd">
<svg xmlns="http://www.w3.org/2000/svg" xmlns:xlink="http://www.w3.org/1999/xlink" version="1.1" width="2103.0555pt" height="465.5083pt" viewBox="0 0 2103.0555 465.5083">
<g enable-background="new">
<g id="Layer-1" data-name="Ebene 1">
<clipPath id="cp0">
<path transform="matrix(2.7777777,0,0,-2.7777777,0,465.5083)" d="M 0 167.583 L 757.1 167.583 L 757.1 0 L 0 0 Z "/>
</clipPath>
<g clip-path="url(#cp0)">
<symbol id="font_1_3">
<path d="M .33800004 0 L .114000018 .27100004 L .32100005 .497 L .25700004 .497 L .05300001 .268 L .05300001 .73 L 0 .73 L 0 0 L .05300001 0 L .05300001 .26700003 L .26600004 0 L .33800004 0 Z "/>
</symbol>
<symbol id="font_1_4">
<path d="M .05300001 0 L .05300001 .73 L 0 .73 L 0 0 L .05300001 0 Z "/>
</symbol>
<symbol id="font_1_2">
<path d="M .080000009 .66 C .080000009 .683 .062 .70000007 .04 .70000007 C .018 .70000007 0 .68200007 0 .66 C 0 .637 .018 .62 .04 .62 C .062 .62 .080000009 .638 .080000009 .66 M .06600001 0 L .06600001 .497 L .012999997 .497 L .012999997 0 L .06600001 0 Z "/>
</symbol>
<symbol id="font_1_6">
<path d="M .38000003 0 L .38000003 .34500004 C .38000003 .43400003 .34500004 .505 .23000002 .505 C .141 .505 .07600001 .45400004 .048 .37600003 L .04600001 .377 C .05200001 .409 .055 .46 .055 .497 L 0 .497 L 0 0 L .05300001 0 L .05300001 .23700002 C .05300001 .36800004 .121000017 .462 .22000003 .462 C .30300004 .462 .32700003 .411 .32700003 .323 L .32700003 0 L .38000003 0 Z "/>
</symbol>
<symbol id="font_1_a">
<path d="M .38000003 .008 L .38000003 .505 L .32700003 .505 L .32700003 .268 C .32700003 .13700001 .25900004 .043 .16000003 .043 C .077 .043 .05300001 .094000007 .05300001 .18200001 L .05300001 .505 L 0 .505 L 0 .16000001 C 0 .071 .035000005 0 .15 0 C .23900002 0 .30400003 .051000004 .33200003 .12900001 L .33400003 .128 C .32800005 .09600001 .32500003 .045 .32500003 .008 L .38000003 .008 Z "/>
</symbol>
<symbol id="font_1_5">
<path d="M .691 0 L .691 .34500004 C .691 .45700003 .637 .505 .545 .505 C .437 .505 .38400004 .425 .367 .37800003 C .36900003 .41200004 .35100005 .505 .22800002 .505 C .143 .505 .07600001 .45400004 .048 .37600003 L .04600001 .377 C .05200001 .409 .055 .46 .055 .497 L 0 .497 L 0 0 L .05300001 0 L .05300001 .23500002 C .05300001 .36900003 .125 .462 .21700001 .462 C .30400003 .462 .31900005 .39900003 .31900005 .324 L .31900005 0 L .37200005 0 L .37200005 .23500002 C .37200005 .37800003 .451 .462 .536 .462 C .61800006 .462 .638 .407 .638 .323 L .638 0 L .691 0 Z "/>
</symbol>
<use xlink:href="#font_1_3" transform="matrix(208.26444,0,0,-208.26444,893.19638,465.07969)" fill="#545456"/>
<use xlink:href="#font_1_4" transform="matrix(208.26444,0,0,-208.26444,990.0393,465.07969)" fill="#545456"/>
<use xlink:href="#font_1_2" transform="matrix(208.26444,0,0,-208.26444,1040.0228,465.07969)" fill="#545456"/>
<use xlink:href="#font_1_6" transform="matrix(208.26444,0,0,-208.26444,1095.4212,465.07969)" fill="#545456"/>
<use xlink:href="#font_1_2" transform="matrix(208.26444,0,0,-208.26444,1213.5071,465.07969)" fill="#545456"/>
<use xlink:href="#font_1_3" transform="matrix(208.26444,0,0,-208.26444,1268.9054,465.07969)" fill="#545456"/>
<use xlink:href="#font_1_a" transform="matrix(208.26444,0,0,-208.26444,1365.7483,466.7458)" fill="#545456"/>
<use xlink:href="#font_1_5" transform="matrix(208.26444,0,0,-208.26444,1486.5418,465.07969)" fill="#545456"/>
<symbol id="font_2_1">
<path d="M .43000005 .279 C .43000005 .43100003 .36400003 .5130001 .24700001 .5130001 C .17199999 .5130001 .11000001 .47200004 .08300001 .402 L .08100001 .40300004 C .087000008 .42800004 .09000001 .467 .09000001 .49600003 L .09000001 .73700007 L 0 .73700007 L 0 .02 C .05300001 .006 .102000009 0 .171 0 C .331 0 .43000005 .105000007 .43000005 .279 M .33600004 .271 C .33600004 .128 .272 .071 .178 .071 C .143 .071 .116000007 .075 .09000001 .083000008 L .09000001 .24800001 C .09000001 .33400003 .136 .439 .22600001 .439 C .301 .439 .33600004 .37800003 .33600004 .271 Z "/>
</symbol>
<symbol id="font_2_3">
<path d="M .465 .266 C .465 .44500003 .36900003 .51500007 .242 .51500007 C .09199999 .51500007 0 .39900003 0 .25300003 C 0 .07800001 .087 0 .223 0 C .37000004 0 .465 .11600001 .465 .266 M .37200005 .261 C .37200005 .134 .30800004 .076000008 .23400001 .076000008 C .143 .076000008 .092999998 .142 .092999998 .26200003 C .092999998 .38500003 .162 .44000004 .23400001 .44000004 C .32600004 .44000004 .37200005 .374 .37200005 .261 Z "/>
</symbol>
<symbol id="font_2_2">
<path d="M .40600003 0 L .40600003 .347 C .40600003 .43500004 .37 .50600007 .256 .50600007 C .171 .50600007 .11000001 .46 .08100001 .39200003 L .079 .39200003 C .085 .42200003 .087000008 .467 .087000008 .497 L 0 .497 L 0 0 L .09000001 0 L .09000001 .238 C .09000001 .34800003 .14900002 .432 .231 .432 C .29700003 .432 .316 .39000003 .316 .32000003 L .316 0 L .40600003 0 Z "/>
</symbol>
<use xlink:href="#font_2_1" transform="matrix(208.26444,0,0,-208.26444,1668.7733,466.53755)" fill="#545456"/>
<use xlink:href="#font_2_3" transform="matrix(208.26444,0,0,-208.26444,1775.6129,466.95408)" fill="#545456"/>
<use xlink:href="#font_2_2" transform="matrix(208.26444,0,0,-208.26444,1898.4891,465.07969)" fill="#545456"/>
<use xlink:href="#font_2_2" transform="matrix(208.26444,0,0,-208.26444,2018.2411,465.07969)" fill="#545456"/>
</g>
<symbol id="font_1_b">
<path d="M .44 .497 L .381 .497 L .246 .128 C .237 .10300001 .22800002 .07700001 .22000002 .052 L .21900001 .052 C .21100001 .079 .20300001 .102000009 .19300002 .13100001 L .062000004 .497 L 0 .497 L .19000001 0 L .246 0 L .44 .497 Z "/>
</symbol>
<symbol id="font_1_1">
<path d="M .4 .316 C .4 .42000003 .34600003 .513 .21200001 .513 C .079 .513 0 .403 0 .255 C 0 .08100001 .077 0 .22100002 0 C .28300003 0 .33900003 .011 .38500003 .030000002 L .37300004 .076000008 C .33200003 .057000005 .282 .047000003 .23300001 .047000003 C .114 .047000003 .051000008 .116000007 .057000005 .276 L .39900003 .276 C .4 .293 .4 .31 .4 .316 M .342 .318 L .060000004 .318 C .07400001 .415 .13100001 .47 .208 .47 C .293 .47 .344 .412 .342 .318 Z "/>
</symbol>
<symbol id="font_1_7">
<path d="M .22700003 .504 C .115 .518 .062 .437 .044000009 .36100004 L .042000005 .36200003 C .051000008 .40800003 .055 .46100004 .055 .497 L 0 .497 L 0 0 L .05300001 0 L .05300001 .19700001 C .05300001 .37600003 .108 .47000004 .22500003 .45200003 L .22700003 .504 Z "/>
</symbol>
<symbol id="font_1_8">
<path d="M .314 .15300001 C .314 .328 .054 .24400002 .054 .38 C .054 .435 .09400001 .47 .17600002 .47 C .21100001 .47 .24700003 .46400003 .278 .454 L .286 .50100007 C .256 .508 .21700002 .513 .18500002 .513 C .065 .513 0 .454 0 .373 C 0 .193 .26 .279 .26 .14400001 C .26 .08400001 .20300003 .047000003 .12500002 .047000003 C .08700001 .047000003 .043 .054000006 .010999996 .066 L .0020000004 .013 C .032 .004 .075 0 .113000009 0 C .24000003 0 .314 .07 .314 .15300001 Z "/>
</symbol>
<symbol id="font_1_9">
<path d="M .33200003 .01 L .324 .057 C .30400003 .052 .279 .048 .25300003 .048 C .18800001 .048 .171 .073 .171 .17300001 L .171 .462 L .328 .462 L .328 .504 L .171 .504 L .171 .68900009 L .11800001 .6740001 L .11800001 .504 L 0 .504 L 0 .462 L .11800001 .462 L .11800001 .143 C .11800001 .045 .14500001 0 .24000001 0 C .27 0 .30600003 .004 .33200003 .01 Z "/>
</symbol>
<symbol id="font_1_c">
<path d="M .36400003 .008 C .363 .054000006 .36200003 .113000009 .36200003 .16600001 L .36200003 .34 C .36200003 .444 .321 .513 .19600001 .513 C .133 .513 .072 .497 .025000003 .476 L .039 .431 C .08 .45200003 .14 .469 .18800001 .469 C .28 .469 .30900003 .421 .30900003 .323 L .30900003 .295 C .104 .295 0 .223 0 .127 C 0 .047000003 .059000005 0 .134 0 C .22300002 0 .289 .055000005 .31300003 .12200001 L .315 .12100001 C .31 .091000009 .30900003 .050000006 .30900003 .008 L .36400003 .008 M .30900003 .24000001 C .30900003 .14400001 .24400002 .045 .146 .045 C .091000009 .045 .055000005 .08400001 .055000005 .13700001 C .055000005 .19500001 .112 .252 .30900003 .252 L .30900003 .24000001 M .324 .66800007 C .324 .69000008 .307 .7070001 .285 .7070001 C .263 .7070001 .24600002 .69000008 .24600002 .66800007 C .24600002 .646 .263 .62900009 .285 .62900009 C .307 .62900009 .324 .646 .324 .66800007 M .142 .66800007 C .142 .69000008 .125 .7070001 .103 .7070001 C .081 .7070001 .063999999 .69000008 .063999999 .66800007 C .063999999 .646 .081 .62900009 .103 .62900009 C .125 .62900009 .142 .646 .142 .66800007 Z "/>
</symbol>
<use xlink:href="#font_1_a" transform="matrix(208.26444,0,0,-208.26444,893.19638,255.98194)" fill="#545456"/>
<use xlink:href="#font_1_6" transform="matrix(208.26444,0,0,-208.26444,1013.98977,254.31581)" fill="#545456"/>
<use xlink:href="#font_1_2" transform="matrix(208.26444,0,0,-208.26444,1132.0758,254.31581)" fill="#545456"/>
<use xlink:href="#font_1_b" transform="matrix(208.26444,0,0,-208.26444,1169.355,254.31581)" fill="#545456"/>
<use xlink:href="#font_1_1" transform="matrix(208.26444,0,0,-208.26444,1270.988,255.98194)" fill="#545456"/>
<use xlink:href="#font_1_7" transform="matrix(208.26444,0,0,-208.26444,1386.1582,254.31581)" fill="#545456"/>
<use xlink:href="#font_1_8" transform="matrix(208.26444,0,0,-208.26444,1451.345,255.98194)" fill="#545456"/>
<use xlink:href="#font_1_2" transform="matrix(208.26444,0,0,-208.26444,1547.3549,254.31581)" fill="#545456"/>
<use xlink:href="#font_1_9" transform="matrix(208.26444,0,0,-208.26444,1581.9268,255.77367)" fill="#545456"/>
<use xlink:href="#font_1_c" transform="matrix(208.26444,0,0,-208.26444,1670.0227,255.98194)" fill="#545456"/>
<use xlink:href="#font_1_9" transform="matrix(208.26444,0,0,-208.26444,1763.7417,255.77367)" fill="#545456"/>
<use xlink:href="#font_1_8" transform="matrix(208.26444,0,0,-208.26444,1852.6705,255.98194)" fill="#545456"/>
<clipPath id="cp3">
<path transform="matrix(2.7777777,0,0,-2.7777777,0,465.5083)" d="M 0 167.583 L 757.1 167.583 L 757.1 0 L 0 0 Z "/>
</clipPath>
<g clip-path="url(#cp3)">
<path transform="matrix(2.7777777,0,0,-2.7777777,207.09471,294.6455)" d="M 0 0 C 0 -29.871 -15.506 -51.3 -38.08 -51.3 C -57.005 -51.3 -62.478 -39.678 -62.478 -19.605 L -62.478 54.042 L -74.554 54.042 L -74.554 -24.624 C -74.554 -44.919 -66.577 -61.105 -40.358 -61.105 C -20.063 -61.105 -6.382 -49.996 -.001 -32.211 L -.001 -61.511 L 12.086 -61.511 L 12.086 106.073 L 0 106.073 Z " fill="#005aaa"/>
<path transform="matrix(2.7777777,0,0,-2.7777777,275.9911,296.15666)" d="M 0 0 L 46.514 52.444 L 61.104 52.444 L 13.907 .916 L 64.981 -60.879 L 48.57 -60.879 Z " fill="#545456"/>
<path transform="matrix(2.7777777,0,0,-2.7777777,619.3844,435.88774)" d="M 0 0 C -9.576 0 -17.559 .915 -25.078 3.426 L -25.078 46.282 C -25.078 66.809 -13.227 96.905 12.537 96.905 C 33.512 96.905 43.094 79.804 43.094 52.212 C 43.094 15.505 26.219 0 0 0 M 13.907 105.706 C -4.558 105.706 -18.473 94.39 -25.087 75.242 C -25.087 75.242 -25.078 89.75 -25.078 95.905 L -25.078 157.01 L -37.165 157.01 L -37.165 -6.698 C -25.994 -9.435 -16.186 -10.576 -1.373 -10.576 C 32.833 -10.576 55.864 10.86 55.864 52.127 C 55.864 87.922 40.358 105.706 13.907 105.706 " fill="#545456"/>
</g>
</g>
</g>
</svg>
